<svg width="151" height="42" viewBox="0 0 151 42" fill="none" xmlns="http://www.w3.org/2000/svg">
<path d="M36.5119 27.4482L32.7193 25.1984L36.3191 23.1414C37.1548 22.82 37.5404 21.92 37.669 21.0844C37.669 20.2487 37.1548 19.3488 36.4477 19.0273L32.1408 16.4561L36.4477 14.0777C37.2833 13.7563 37.669 12.8563 37.7976 12.0207C37.7976 11.185 37.2833 10.2851 36.5762 9.96364L20.5701 0.385689C19.863 -0.128563 18.8345 -0.128563 18.1917 0.385689L1.22135 9.83508C0.514253 10.3493 0 11.0564 0 11.8921C0 12.7278 0.514253 13.6277 1.22135 13.9491L5.65678 16.3275L1.22135 18.8988C0.514253 19.2202 0 20.1201 0 20.9558C0 21.7915 0.514253 22.6914 1.22135 23.0128L5.14253 25.2627L1.22135 27.5125C0.514253 27.8339 0 28.7339 0 29.5695C0 30.4052 0.514253 31.3051 1.22135 31.6265L17.9988 40.6902C18.3202 40.8831 18.8345 41.0116 19.2202 41.0116C19.5416 41.0116 20.0559 40.8188 20.4415 40.6902L36.3834 31.6265C37.219 31.3051 37.6047 30.4052 37.7333 29.5695C37.7333 28.6696 37.219 27.8339 36.5119 27.4482V27.4482ZM4.62827 11.8921L19.413 3.47121L33.2979 11.8921L19.2202 19.7344L4.62827 11.8921ZM4.62827 20.9558L9.25655 18.3845L17.9988 23.2057C18.3202 23.5271 18.8345 23.5271 19.2202 23.5271H19.413C19.9273 23.5271 20.2487 23.3342 20.6344 23.0128L28.8624 18.3845L33.2979 20.9558L19.413 28.8624L4.62827 20.9558V20.9558ZM19.2202 37.4119L4.62827 29.5052L8.74229 27.1268L17.9988 32.2694C18.3202 32.4622 18.8345 32.5908 19.2202 32.5908C19.5416 32.5908 20.0559 32.3979 20.4415 32.2694L29.3767 27.1268L33.2979 29.5052L19.2202 37.4119V37.4119Z" fill="#2F80ED"/>
<path d="M48.2832 35.9977V6.25332H57.8483C61.4686 6.25332 64.2044 6.91842 66.0557 8.24862C67.9208 9.57882 68.8533 11.4987 68.8533 14.0083C68.8533 15.5853 68.4419 16.9361 67.6191 18.0606C66.7963 19.1851 65.3701 20.1107 63.3405 20.8375C65.6855 21.3449 67.3105 22.25 68.2156 23.5528C69.1344 24.8418 69.5938 26.3229 69.5938 27.9959C69.5938 33.3304 65.7815 35.9977 58.1568 35.9977H48.2832ZM52.0886 19.3359H58.5682C59.5967 19.3359 60.6184 19.1919 61.6332 18.9039C62.648 18.616 63.4913 18.1223 64.1633 17.4229C64.8353 16.7235 65.1712 15.743 65.1712 14.4814C65.1712 12.7535 64.5061 11.4781 63.1759 10.6553C61.8594 9.8188 60.1453 9.40054 58.0334 9.40054H52.0886V19.3359ZM52.0886 32.8299H58.1157C60.5978 32.8299 62.4834 32.4253 63.7725 31.6163C65.0752 30.7935 65.7266 29.5318 65.7266 27.8314C65.7266 26.5834 65.4044 25.5755 64.7598 24.8076C64.129 24.0259 63.2719 23.4568 62.1886 23.1002C61.1052 22.7437 59.8984 22.5654 58.5682 22.5654H52.0886V32.8299Z" fill="#2F80ED"/>
<path d="M73.4616 35.9977L84.2198 6.25332H88.5189L99.2771 35.9977H95.3894L92.4684 27.8519H80.3115L77.3288 35.9977H73.4616ZM81.2783 24.355H91.4605L86.4002 10.0176L81.2783 24.355Z" fill="#2F80ED"/>
<path d="M114.388 36.4091C112.523 36.4091 110.748 36.1005 109.061 35.4834C107.388 34.8526 105.975 33.9201 104.823 32.6859C103.685 31.4517 102.993 29.9227 102.746 28.0988H106.736C107.107 29.7855 108.005 31.0677 109.431 31.9454C110.857 32.8093 112.503 33.2413 114.368 33.2413C116.466 33.2413 118.208 32.8093 119.593 31.9454C120.991 31.0677 121.691 29.8747 121.691 28.3662C121.691 27.0223 121.238 25.9526 120.333 25.1572C119.442 24.3482 118.173 23.7516 116.528 23.3676L110.686 22.01C108.492 21.53 106.771 20.673 105.523 19.4388C104.288 18.2046 103.658 16.5727 103.63 14.5431C103.63 12.8289 104.083 11.3204 104.988 10.0176C105.893 8.71488 107.148 7.70008 108.752 6.97327C110.357 6.24646 112.187 5.88306 114.244 5.88306C116.617 5.88306 118.612 6.2876 120.23 7.09669C121.849 7.90578 123.069 8.96857 123.892 10.2851C124.715 11.6015 125.133 13.0072 125.147 14.5019H121.218C121.094 13.158 120.697 12.0952 120.025 11.3136C119.366 10.5182 118.53 9.95594 117.515 9.62682C116.514 9.28398 115.431 9.11256 114.265 9.11256C113.141 9.11256 112.071 9.30455 111.056 9.68853C110.055 10.0725 109.232 10.6416 108.588 11.3958C107.957 12.1364 107.641 13.062 107.641 14.1728C107.641 15.2562 108.005 16.1338 108.732 16.8058C109.458 17.464 110.796 18.0331 112.743 18.5131L118.4 19.8707C120.374 20.2958 121.876 20.9747 122.904 21.9072C123.933 22.826 124.632 23.8545 125.003 24.9927C125.387 26.1309 125.579 27.2417 125.579 28.325C125.579 29.8198 125.133 31.1774 124.241 32.3979C123.364 33.6184 122.088 34.5921 120.415 35.3189C118.742 36.0457 116.733 36.4091 114.388 36.4091Z" fill="#2F80ED"/>
<path d="M131.849 35.9977V6.25332H150.609L150.589 9.60625H135.675V19.3153H149.108V22.6477H135.655V32.5625L151 32.6036V35.9977H131.849Z" fill="#2F80ED"/>
</svg>
