<svg width="40" height="40" viewBox="0 0 40 40" fill="none" xmlns="http://www.w3.org/2000/svg">
<path d="M15.8584 14.9508C16.5356 14.3659 17.2996 13.9374 18.1533 13.6739C19.2066 13.3497 20.2745 13.3149 21.3539 13.535C21.9963 13.6652 22.5982 13.9055 23.1625 14.2443C23.504 14.447 23.8166 14.6873 24.1088 14.9565C24.187 15.0289 24.242 15.0347 24.323 14.9508C24.6992 14.5628 25.0841 14.1835 25.4632 13.8013C26.0622 13.202 26.6612 12.5998 27.2661 12.0033C27.35 11.9194 27.3645 11.8644 27.2632 11.7891C27.1648 11.7138 27.078 11.6212 26.9825 11.5401C26.1346 10.8221 25.2027 10.2401 24.1725 9.81449C23.0497 9.34256 21.8748 9.08777 20.6622 9.01828C19.4179 8.9488 18.188 9.07619 16.987 9.42073C16.2375 9.63788 15.5169 9.92451 14.8311 10.2922C13.8906 10.8018 13.0311 11.4272 12.2729 12.1857C11.5726 12.8864 10.962 13.6537 10.4729 14.5107C10.3687 14.6931 10.2703 14.8755 10.1777 15.0637L13.8587 17.93C14.2465 16.7574 14.9121 15.7643 15.8584 14.9508Z" fill="#DA4030"/>
<path d="M21.1456 26.5409C20.4858 26.6394 19.8289 26.6538 19.172 26.5699C18.0694 26.428 17.0739 26.0053 16.1855 25.3394C15.4562 24.7922 14.863 24.1176 14.4058 23.3271C14.18 22.9334 13.9948 22.5223 13.8559 22.0938L10.1836 24.963C10.3225 25.2352 10.4701 25.5015 10.6321 25.765C11.2948 26.8363 12.1138 27.7685 13.0919 28.5618C13.7691 29.112 14.4955 29.581 15.2884 29.9458C16.0003 30.2759 16.7353 30.5451 17.508 30.7188C18.0926 30.852 18.6829 30.9534 19.279 30.9823C20.4684 31.0373 21.6462 30.9736 22.8096 30.6928C23.3536 30.5596 23.889 30.3975 24.4041 30.1832C25.116 29.885 25.7903 29.5144 26.4182 29.0569C26.725 28.834 27.0173 28.5908 27.2893 28.3331L23.7356 25.5681C22.9485 26.0864 22.0832 26.4049 21.1456 26.5409Z" fill="#51AC47"/>
<path d="M30.3541 18.1473C30.3136 17.9302 30.3165 17.9302 30.0995 17.9302C28.4558 17.9302 26.8091 17.9302 25.1654 17.9302C23.5159 17.9302 21.8664 17.9302 20.2169 17.9302C19.9941 17.9302 19.9883 17.936 19.9883 18.156C19.9883 19.4213 19.9883 20.6836 19.9883 21.9489C19.9883 22.1892 19.9883 22.1892 20.2256 22.1892C22.0574 22.1892 23.8921 22.1892 25.7239 22.1892C25.9265 22.1892 25.9352 22.1978 25.8918 22.3947C25.7847 22.8927 25.6082 23.3647 25.3622 23.8105C24.9773 24.5054 24.4593 25.0845 23.7995 25.5274C23.7793 25.5419 23.759 25.5535 23.7387 25.568L27.2924 28.333C27.631 28.0145 27.9435 27.67 28.2358 27.3052C28.9969 26.3555 29.5496 25.29 29.9316 24.1348C30.2702 23.107 30.4554 22.0502 30.5133 20.9731C30.5625 20.0293 30.5249 19.0825 30.3541 18.1473Z" fill="#6076B9"/>
<path d="M13.6963 21.5002C13.5921 21.0341 13.5169 20.5621 13.5111 20.0844C13.5053 19.4214 13.6008 18.7671 13.7918 18.133C13.8121 18.0635 13.8352 17.9969 13.8555 17.9303L10.1745 15.064C9.90534 15.5996 9.68251 16.1584 9.5002 16.7346C9.23686 17.5684 9.07769 18.4196 9.02271 19.2882C8.94747 20.5042 9.05744 21.7058 9.37866 22.8842C9.57544 23.608 9.84168 24.3029 10.1803 24.9659L13.8526 22.0966C13.7947 21.8998 13.7397 21.7029 13.6963 21.5002Z" fill="#ECBF1C"/>
</svg>
