<svg xmlns="http://www.w3.org/2000/svg" width="110.744" height="33.333" viewBox="0 0 110.744 33.333">
  <g id="Group_2" data-name="Group 2" transform="translate(-552 -736)">
    <g id="Group_1" data-name="Group 1" transform="translate(0 -15)">
      <path id="Path_1" data-name="Path 1" d="M15.883,30a3.333,3.333,0,1,0,2.357.976A3.333,3.333,0,0,0,15.883,30Z" transform="translate(548.667 747.667)" fill="#542ded" opacity="0.64"/>
      <path id="Path_2" data-name="Path 2" d="M29.233,30a3.333,3.333,0,1,0,2.357.976A3.333,3.333,0,0,0,29.233,30Z" transform="translate(548.667 747.667)" fill="#542ded" opacity="0.64"/>
      <path id="Path_3" data-name="Path 3" d="M32.5,6.667H10.733a.833.833,0,0,0-.55.233l3.333,14.533a.4.4,0,0,0,.117.333,4.117,4.117,0,0,0,3.2,1.5h12.4a7.517,7.517,0,0,0,7.433-7.45v-5A4.167,4.167,0,0,0,32.5,6.667Z" transform="translate(548.667 747.667)" fill="#542ded"/>
      <path id="Path_4" data-name="Path 4" d="M30.233,27.983H18.9a7.7,7.7,0,0,1-7.55-6.033L8.017,7.233A2.267,2.267,0,0,0,5.85,5.467H4.4a1.067,1.067,0,1,1,0-2.133H5.85a4.383,4.383,0,0,1,4.3,3.433l3.333,14.717A5.583,5.583,0,0,0,18.95,25.85H30.283a1.067,1.067,0,0,1,0,2.133Z" transform="translate(548.667 747.667)" fill="#542ded" opacity="0.8"/>
    </g>
    <path id="Path_5" data-name="Path 5" d="M6.768.24A5.243,5.243,0,0,1,2.82-1.284,6.248,6.248,0,0,1,1.2-5.448l-.024-.816L1.2-7.056a6.33,6.33,0,0,1,1.644-4.128,5.16,5.16,0,0,1,3.9-1.536,5.165,5.165,0,0,1,4.128,1.692,6.749,6.749,0,0,1,1.464,4.572v.408a.537.537,0,0,1-.156.4.537.537,0,0,1-.4.156H3.48v.216a4.447,4.447,0,0,0,.948,2.652A2.822,2.822,0,0,0,6.744-1.536,3.36,3.36,0,0,0,8.556-1.98,3.558,3.558,0,0,0,9.6-2.9a1.4,1.4,0,0,1,.324-.348.9.9,0,0,1,.4-.06H11.5a.543.543,0,0,1,.36.12A.413.413,0,0,1,12-2.856a2.112,2.112,0,0,1-.66,1.272A5.433,5.433,0,0,1,9.492-.3,6.518,6.518,0,0,1,6.768.24Zm3.288-7.392v-.072a3.988,3.988,0,0,0-.9-2.7,3.023,3.023,0,0,0-2.412-1.044A2.953,2.953,0,0,0,4.356-9.924a4.058,4.058,0,0,0-.876,2.7v.072ZM20.928.24a8.682,8.682,0,0,1-3.444-.624,5.335,5.335,0,0,1-2.22-1.644,3.852,3.852,0,0,1-.816-2.2.482.482,0,0,1,.156-.348.508.508,0,0,1,.372-.156H16.2a.626.626,0,0,1,.624.48A2.842,2.842,0,0,0,18.06-2.52a4.918,4.918,0,0,0,2.868.72,5.223,5.223,0,0,0,3-.708,2.283,2.283,0,0,0,1.008-1.98,1.809,1.809,0,0,0-.492-1.32A4.183,4.183,0,0,0,22.992-6.7q-.96-.384-2.88-.96a14.783,14.783,0,0,1-2.976-1.128,4.313,4.313,0,0,1-1.656-1.488,4.159,4.159,0,0,1-.552-2.232,4.019,4.019,0,0,1,.708-2.328,4.706,4.706,0,0,1,2.028-1.62,7.684,7.684,0,0,1,3.144-.588,7.23,7.23,0,0,1,3.216.66,5.18,5.18,0,0,1,2.04,1.668,3.864,3.864,0,0,1,.744,2.016.482.482,0,0,1-.132.336.479.479,0,0,1-.372.144H25.032a.576.576,0,0,1-.624-.456A2.383,2.383,0,0,0,23.28-14.34,4.344,4.344,0,0,0,20.808-15a4.584,4.584,0,0,0-2.568.624,2.077,2.077,0,0,0-.936,1.848,2.017,2.017,0,0,0,.444,1.344,3.628,3.628,0,0,0,1.356.924,23.243,23.243,0,0,0,2.664.9,17.837,17.837,0,0,1,3.216,1.14,4.363,4.363,0,0,1,1.752,1.464,3.964,3.964,0,0,1,.576,2.22,4.112,4.112,0,0,1-1.728,3.5A7.689,7.689,0,0,1,20.928.24ZM35.016,0q-3.792,0-3.792-4.224V-10.56H29.352a.537.537,0,0,1-.4-.156.537.537,0,0,1-.156-.4v-.816a.537.537,0,0,1,.156-.4.537.537,0,0,1,.4-.156h1.872v-4.008a.537.537,0,0,1,.156-.4.537.537,0,0,1,.4-.156H32.9a.537.537,0,0,1,.4.156.537.537,0,0,1,.156.4v4.008h2.976a.537.537,0,0,1,.4.156.537.537,0,0,1,.156.4v.816a.537.537,0,0,1-.156.4.537.537,0,0,1-.4.156H33.456v6.168a3.284,3.284,0,0,0,.408,1.812,1.5,1.5,0,0,0,1.344.612h1.464a.537.537,0,0,1,.4.156.537.537,0,0,1,.156.4v.864a.537.537,0,0,1-.156.4.537.537,0,0,1-.4.156ZM44.64.24a5.455,5.455,0,0,1-4.092-1.488A5.765,5.765,0,0,1,39-5.208L38.976-6.24,39-7.272a5.752,5.752,0,0,1,1.56-3.948,5.439,5.439,0,0,1,4.08-1.5,5.439,5.439,0,0,1,4.08,1.5,5.752,5.752,0,0,1,1.56,3.948q.024.264.024,1.032T50.28-5.208a5.765,5.765,0,0,1-1.548,3.96A5.455,5.455,0,0,1,44.64.24Zm0-1.848a3.072,3.072,0,0,0,2.388-.96,4.218,4.218,0,0,0,.948-2.76Q48-5.568,48-6.24t-.024-.912a4.218,4.218,0,0,0-.948-2.76,3.072,3.072,0,0,0-2.388-.96,3.11,3.11,0,0,0-2.4.96,4.089,4.089,0,0,0-.936,2.76l-.024.912.024.912a4.089,4.089,0,0,0,.936,2.76A3.11,3.11,0,0,0,44.64-1.608ZM53.856,0a.537.537,0,0,1-.4-.156.537.537,0,0,1-.156-.4V-11.9a.578.578,0,0,1,.156-.408.517.517,0,0,1,.4-.168h1.1a.555.555,0,0,1,.408.168.555.555,0,0,1,.168.408v1.056A3.6,3.6,0,0,1,58.9-12.48h.936a.537.537,0,0,1,.4.156.537.537,0,0,1,.156.4v.984a.5.5,0,0,1-.156.384.561.561,0,0,1-.4.144h-1.44a2.732,2.732,0,0,0-2.04.756,2.8,2.8,0,0,0-.744,2.052V-.552a.517.517,0,0,1-.168.4A.578.578,0,0,1,55.032,0Zm13.32.24a5.243,5.243,0,0,1-3.948-1.524,6.248,6.248,0,0,1-1.62-4.164l-.024-.816.024-.792a6.33,6.33,0,0,1,1.644-4.128,5.16,5.16,0,0,1,3.9-1.536,5.165,5.165,0,0,1,4.128,1.692,6.748,6.748,0,0,1,1.464,4.572v.408a.537.537,0,0,1-.156.4.537.537,0,0,1-.4.156h-8.3v.216a4.447,4.447,0,0,0,.948,2.652,2.822,2.822,0,0,0,2.316,1.092,3.36,3.36,0,0,0,1.812-.444A3.559,3.559,0,0,0,70.008-2.9a1.4,1.4,0,0,1,.324-.348.9.9,0,0,1,.4-.06H71.9a.543.543,0,0,1,.36.12.413.413,0,0,1,.144.336,2.112,2.112,0,0,1-.66,1.272A5.433,5.433,0,0,1,69.9-.3,6.518,6.518,0,0,1,67.176.24Zm3.288-7.392v-.072a3.988,3.988,0,0,0-.9-2.7,3.023,3.023,0,0,0-2.412-1.044,2.953,2.953,0,0,0-2.388,1.044,4.058,4.058,0,0,0-.876,2.7v.072Z" transform="translate(590 761)" fill="#542ded"/>
  </g>
</svg>
