<svg width="48" height="53" viewBox="0 0 48 53" fill="none" xmlns="http://www.w3.org/2000/svg">
<path d="M46.3673 34.8571L41.551 32L46.1225 29.3878C47.1837 28.9796 47.6735 27.8367 47.8367 26.7755C47.8367 25.7143 47.1837 24.5714 46.2857 24.1633L40.8163 20.898L46.2857 17.8776C47.3469 17.4694 47.8367 16.3265 48 15.2653C48 14.2041 47.3469 13.0612 46.449 12.6531L26.1224 0.489796C25.2245 -0.163265 23.9184 -0.163265 23.102 0.489796L1.55102 12.4898C0.653061 13.1429 0 14.0408 0 15.102C0 16.1633 0.653061 17.3061 1.55102 17.7143L7.18367 20.7347L1.55102 24C0.653061 24.4082 0 25.551 0 26.6122C0 27.6735 0.653061 28.8163 1.55102 29.2245L6.53061 32.0816L1.55102 34.9388C0.653061 35.3469 0 36.4898 0 37.551C0 38.6122 0.653061 39.7551 1.55102 40.1633L22.8571 51.6735C23.2653 51.9184 23.9184 52.0816 24.4082 52.0816C24.8163 52.0816 25.4694 51.8367 25.9592 51.6735L46.2041 40.1633C47.2653 39.7551 47.7551 38.6122 47.9184 37.551C47.9184 36.4082 47.2653 35.3469 46.3673 34.8571V34.8571ZM5.87755 15.102L24.6531 4.40816L42.2857 15.102L24.4082 25.0612L5.87755 15.102ZM5.87755 26.6122L11.7551 23.3469L22.8571 29.4694C23.2653 29.8776 23.9184 29.8776 24.4082 29.8776H24.6531C25.3061 29.8776 25.7143 29.6327 26.2041 29.2245L36.6531 23.3469L42.2857 26.6122L24.6531 36.6531L5.87755 26.6122V26.6122ZM24.4082 47.5102L5.87755 37.4694L11.102 34.449L22.8571 40.9796C23.2653 41.2245 23.9184 41.3878 24.4082 41.3878C24.8163 41.3878 25.4694 41.1429 25.9592 40.9796L37.3061 34.449L42.2857 37.4694L24.4082 47.5102V47.5102Z" fill="#2F80ED"/>
</svg>
