<svg width="28" height="28" viewBox="0 0 28 28" fill="none" xmlns="http://www.w3.org/2000/svg">
<path opacity="0.64" d="M10.7067 22.0133C11.1011 22.0186 11.4851 22.1404 11.8105 22.3633C12.1358 22.5862 12.388 22.9004 12.5353 23.2663C12.6826 23.6322 12.7184 24.0334 12.6383 24.4196C12.5581 24.8058 12.3656 25.1597 12.0848 25.4367C11.8041 25.7138 11.4477 25.9016 11.0605 25.9766C10.6733 26.0517 10.2725 26.0105 9.90862 25.8584C9.54471 25.7063 9.23392 25.45 9.01531 25.1217C8.79671 24.7934 8.68005 24.4078 8.68001 24.0133C8.67999 23.7484 8.73259 23.4862 8.83477 23.2418C8.93694 22.9974 9.08665 22.7757 9.2752 22.5896C9.46375 22.4035 9.68738 22.2568 9.93312 22.1579C10.1789 22.0589 10.4418 22.0098 10.7067 22.0133ZM10.7067 20.68C10.0463 20.6747 9.39923 20.8657 8.84757 21.2288C8.29591 21.5918 7.86452 22.1105 7.60814 22.7191C7.35175 23.3277 7.28192 23.9988 7.40751 24.6471C7.5331 25.2955 7.84845 25.8919 8.31354 26.3608C8.77864 26.8296 9.37252 27.1497 10.0198 27.2805C10.6672 27.4113 11.3387 27.3469 11.9494 27.0954C12.56 26.8439 13.0822 26.4167 13.4497 25.868C13.8171 25.3193 14.0133 24.6737 14.0133 24.0133C14.0134 23.1339 13.6658 22.2901 13.0465 21.6657C12.4271 21.0413 11.5861 20.687 10.7067 20.68Z" fill="#542DED"/>
<path opacity="0.64" d="M21.3865 22.0134C21.7803 22.0212 22.163 22.1452 22.4865 22.3697C22.8101 22.5942 23.0603 22.9092 23.2055 23.2753C23.3508 23.6414 23.3847 24.0422 23.3031 24.4275C23.2215 24.8128 23.0279 25.1654 22.7467 25.4411C22.4654 25.7168 22.1091 25.9034 21.7222 25.9773C21.3354 26.0513 20.9353 26.0095 20.5722 25.857C20.2091 25.7045 19.899 25.4482 19.681 25.1202C19.463 24.7922 19.3466 24.4072 19.3465 24.0134C19.35 23.484 19.5618 22.9773 19.9362 22.603C20.3105 22.2287 20.8172 22.0168 21.3465 22.0134H21.3865ZM21.3465 20.68C20.6872 20.68 20.0428 20.8755 19.4946 21.2418C18.9465 21.6081 18.5192 22.1287 18.2669 22.7377C18.0146 23.3468 17.9486 24.0171 18.0772 24.6637C18.2059 25.3103 18.5233 25.9042 18.9895 26.3704C19.4557 26.8366 20.0496 27.154 20.6962 27.2826C21.3428 27.4113 22.013 27.3452 22.6221 27.093C23.2312 26.8407 23.7518 26.4134 24.1181 25.8653C24.4844 25.3171 24.6799 24.6726 24.6799 24.0134C24.6799 23.1362 24.3342 22.2943 23.7177 21.6704C23.1012 21.0464 22.2636 20.6905 21.3865 20.68H21.3465Z" fill="#542DED"/>
<path opacity="0.8" d="M22.0133 20.0267H12.9599C11.595 20.0322 10.2692 19.5712 9.20225 18.7201C8.13527 17.8689 7.39116 16.6787 7.09327 15.3467L4.4266 3.58669C4.33055 3.14652 4.0887 2.75167 3.74022 2.46611C3.39175 2.18056 2.95706 2.02102 2.5066 2.01336H1.3466C1.17086 2.00994 1.00326 1.93861 0.878971 1.81432C0.754679 1.69003 0.683345 1.52243 0.679932 1.34669C0.679932 1.16988 0.75017 1.00031 0.875194 0.875287C1.00022 0.750263 1.16979 0.680025 1.3466 0.680025H2.5066C3.27408 0.677891 4.01841 0.942797 4.61198 1.42933C5.20555 1.91586 5.61139 2.59372 5.75993 3.34669L8.4266 15.1067C8.65504 16.1449 9.23208 17.0736 10.0617 17.7383C10.8913 18.403 11.9235 18.7635 12.9866 18.76H22.0133C22.1901 18.76 22.3596 18.8303 22.4847 18.9553C22.6097 19.0803 22.6799 19.2499 22.6799 19.4267C22.6633 19.5917 22.5859 19.7446 22.4626 19.8556C22.3393 19.9665 22.1791 20.0275 22.0133 20.0267Z" fill="#542DED"/>
<path d="M27.3466 6.24002C27.2767 7.43471 26.8071 8.57118 26.0132 9.46669V10.6667C26.0132 11.9044 25.5216 13.0913 24.6464 13.9665C23.7712 14.8417 22.5842 15.3334 21.3466 15.3334H10.0132C9.55937 15.3348 9.11869 15.1808 8.76452 14.897C8.41035 14.6132 8.16404 14.2166 8.06656 13.7734L6.09323 4.68002H16.8266C16.9343 4.21066 17.1142 3.76086 17.3599 3.34669H5.25323C5.15377 3.34865 5.05595 3.37242 4.96667 3.41631C4.87739 3.4602 4.79883 3.52314 4.73653 3.6007C4.67423 3.67826 4.6297 3.76855 4.60609 3.86519C4.58249 3.96183 4.58037 4.06247 4.5999 4.16002L6.81323 14.0134C6.95994 14.7574 7.35795 15.4284 7.94055 15.9139C8.52315 16.3994 9.25493 16.6699 10.0132 16.68H21.2799C22.0741 16.6871 22.8617 16.5367 23.5975 16.2377C24.3332 15.9386 25.0024 15.4968 25.5665 14.9377C26.1305 14.3786 26.5782 13.7133 26.8838 12.9803C27.1893 12.2472 27.3466 11.4609 27.3466 10.6667V6.66669C27.3574 6.52467 27.3574 6.38204 27.3466 6.24002Z" fill="#542DED"/>
<path d="M22.0133 11.3467C20.9584 11.3467 19.9273 11.0339 19.0502 10.4479C18.1732 9.86183 17.4896 9.02887 17.0859 8.05433C16.6822 7.07979 16.5766 6.00744 16.7824 4.97287C16.9882 3.93831 17.4962 2.988 18.242 2.24212C18.9879 1.49624 19.9382 0.988288 20.9728 0.7825C22.0074 0.576712 23.0797 0.68233 24.0542 1.086C25.0288 1.48966 25.8617 2.17325 26.4478 3.05031C27.0338 3.92738 27.3466 4.95852 27.3466 6.01336C27.3466 7.42784 26.7847 8.7844 25.7845 9.78459C24.7843 10.7848 23.4278 11.3467 22.0133 11.3467ZM22.0133 2.01336C21.2221 2.01336 20.4488 2.24795 19.791 2.68748C19.1332 3.127 18.6205 3.75172 18.3177 4.48262C18.015 5.21353 17.9358 6.01779 18.0901 6.79372C18.2445 7.56964 18.6254 8.28237 19.1848 8.84178C19.7442 9.40119 20.457 9.78216 21.2329 9.9365C22.0088 10.0908 22.8131 10.0116 23.544 9.70887C24.2749 9.40612 24.8996 8.89343 25.3391 8.23564C25.7787 7.57784 26.0133 6.80448 26.0133 6.01336C26.0133 4.95249 25.5918 3.93507 24.8417 3.18493C24.0915 2.43478 23.0741 2.01336 22.0133 2.01336Z" fill="#542DED"/>
<path d="M23.9867 5.33335H22.6533V4.00002C22.6501 3.83005 22.582 3.66775 22.463 3.54631C22.3441 3.42486 22.1832 3.35346 22.0133 3.34669C21.8365 3.34669 21.667 3.41693 21.5419 3.54195C21.4169 3.66697 21.3467 3.83654 21.3467 4.01335V5.34669H20.0133C19.8365 5.34669 19.667 5.41693 19.5419 5.54195C19.4169 5.66697 19.3467 5.83654 19.3467 6.01335C19.3467 6.19016 19.4169 6.35973 19.5419 6.48476C19.667 6.60978 19.8365 6.68002 20.0133 6.68002H21.3467V8.01335C21.3467 8.19016 21.4169 8.35973 21.5419 8.48476C21.667 8.60978 21.8365 8.68002 22.0133 8.68002C22.1902 8.68002 22.3597 8.60978 22.4848 8.48476C22.6098 8.35973 22.68 8.19016 22.68 8.01335V6.68002H24.0133C24.1902 6.68002 24.3597 6.60978 24.4848 6.48476C24.6098 6.35973 24.68 6.19016 24.68 6.01335C24.68 5.83654 24.6098 5.66697 24.4848 5.54195C24.3597 5.41693 24.1902 5.34669 24.0133 5.34669L23.9867 5.33335Z" fill="#542DED"/>
</svg>
