<svg width="27" height="28" viewBox="0 0 27 28" fill="none" xmlns="http://www.w3.org/2000/svg">
<path opacity="0.64" d="M10.2897 22.0133C10.6841 22.0186 11.0681 22.1403 11.3935 22.3633C11.7188 22.5862 11.971 22.9004 12.1183 23.2662C12.2656 23.6321 12.3014 24.0334 12.2213 24.4196C12.1411 24.8058 11.9486 25.1596 11.6678 25.4367C11.3871 25.7137 11.0307 25.9016 10.6435 25.9766C10.2563 26.0516 9.85552 26.0105 9.49162 25.8584C9.12772 25.7063 8.81693 25.4499 8.59832 25.1216C8.37971 24.7933 8.26306 24.4077 8.26302 24.0133C8.263 23.7484 8.3156 23.4861 8.41777 23.2417C8.51995 22.9973 8.66965 22.7757 8.85821 22.5896C9.04676 22.4035 9.27039 22.2568 9.51613 22.1578C9.76187 22.0589 10.0248 22.0098 10.2897 22.0133ZM10.2897 20.68C9.62931 20.6747 8.98224 20.8657 8.43058 21.2287C7.87892 21.5918 7.44753 22.1105 7.19114 22.7191C6.93476 23.3277 6.86493 23.9988 6.99052 24.6471C7.11611 25.2955 7.43146 25.8919 7.89655 26.3607C8.36165 26.8296 8.95553 27.1497 9.60285 27.2805C10.2502 27.4113 10.9218 27.3469 11.5324 27.0954C12.143 26.8439 12.6652 26.4167 13.0327 25.868C13.4001 25.3192 13.5963 24.6737 13.5964 24.0133C13.5964 23.1339 13.2489 22.29 12.6295 21.6657C12.0101 21.0413 11.1691 20.687 10.2897 20.68Z" fill="white"/>
<path opacity="0.64" d="M20.969 22.0133C21.3628 22.0212 21.7455 22.1452 22.0691 22.3697C22.3927 22.5942 22.6428 22.9092 22.788 23.2753C22.9333 23.6413 22.9672 24.0422 22.8856 24.4274C22.804 24.8127 22.6104 25.1654 22.3292 25.4411C22.048 25.7168 21.6916 25.9033 21.3047 25.9773C20.9179 26.0513 20.5178 26.0094 20.1547 25.857C19.7916 25.7045 19.4816 25.4482 19.2635 25.1202C19.0455 24.7922 18.9291 24.4072 18.929 24.0133C18.9325 23.484 19.1444 22.9773 19.5187 22.603C19.893 22.2287 20.3997 22.0168 20.929 22.0133H20.969ZM20.929 20.68C20.2698 20.68 19.6253 20.8755 19.0771 21.2418C18.529 21.608 18.1017 22.1286 17.8494 22.7377C17.5971 23.3468 17.5311 24.017 17.6598 24.6636C17.7884 25.3102 18.1058 25.9042 18.572 26.3703C19.0382 26.8365 19.6321 27.154 20.2787 27.2826C20.9253 27.4112 21.5956 27.3452 22.2047 27.0929C22.8137 26.8406 23.3343 26.4134 23.7006 25.8652C24.0669 25.3171 24.2624 24.6726 24.2624 24.0133C24.2624 23.1362 23.9167 22.2943 23.3002 21.6703C22.6837 21.0463 21.8461 20.6905 20.969 20.68H20.929Z" fill="white"/>
<path opacity="0.8" d="M21.596 20.0267H12.5427C11.1778 20.0322 9.852 19.5712 8.78502 18.72C7.71803 17.8689 6.97392 16.6787 6.67603 15.3467L4.00936 3.58667C3.91331 3.1465 3.67146 2.75165 3.32299 2.46609C2.97451 2.18054 2.53983 2.021 2.08936 2.01334H0.929362C0.75362 2.00993 0.586026 1.93859 0.461734 1.8143C0.337442 1.69001 0.266109 1.52241 0.262695 1.34667C0.262695 1.16986 0.332933 1.00029 0.457958 0.875268C0.582982 0.750243 0.752551 0.680005 0.929362 0.680005H2.08936C2.85685 0.677872 3.60117 0.942778 4.19474 1.42931C4.78831 1.91584 5.19415 2.5937 5.3427 3.34667L8.00936 15.1067C8.23781 16.1449 8.81485 17.0736 9.64448 17.7383C10.4741 18.4029 11.5063 18.7635 12.5694 18.76H21.596C21.7728 18.76 21.9424 18.8302 22.0674 18.9553C22.1925 19.0803 22.2627 19.2499 22.2627 19.4267C22.2461 19.5917 22.1686 19.7446 22.0453 19.8555C21.9221 19.9665 21.7619 20.0275 21.596 20.0267Z" fill="white"/>
<path d="M26.9298 6.24001C26.86 7.4347 26.3903 8.57118 25.5965 9.46668V10.6667C25.5965 11.9044 25.1048 13.0913 24.2296 13.9665C23.3545 14.8417 22.1675 15.3333 20.9298 15.3333H9.59648C9.14262 15.3348 8.70194 15.1808 8.34777 14.897C7.9936 14.6132 7.74729 14.2166 7.64982 13.7733L5.67648 4.68001H16.4098C16.5175 4.21065 16.6974 3.76085 16.9431 3.34668H4.83648C4.73702 3.34865 4.6392 3.37241 4.54992 3.4163C4.46064 3.46019 4.38208 3.52314 4.31978 3.6007C4.25748 3.67825 4.21295 3.76854 4.18935 3.86518C4.16574 3.96182 4.16362 4.06247 4.18315 4.16001L6.39648 14.0133C6.5432 14.7574 6.94121 15.4284 7.5238 15.9139C8.1064 16.3994 8.83818 16.6699 9.59648 16.68H20.8631C21.6573 16.6871 22.445 16.5367 23.1807 16.2377C23.9165 15.9386 24.5857 15.4968 25.1497 14.9377C25.7138 14.3786 26.1615 13.7133 26.467 12.9803C26.7726 12.2472 26.9298 11.4609 26.9298 10.6667V6.66668C26.9407 6.52466 26.9407 6.38203 26.9298 6.24001Z" fill="white"/>
<path d="M21.596 11.3467C20.5412 11.3467 19.5101 11.0339 18.633 10.4478C17.7559 9.8618 17.0723 9.02885 16.6687 8.05431C16.265 7.07977 16.1594 6.00741 16.3652 4.97285C16.571 3.93828 17.0789 2.98797 17.8248 2.24209C18.5707 1.49621 19.521 0.988261 20.5555 0.782474C21.5901 0.576686 22.6625 0.682304 23.637 1.08597C24.6115 1.48964 25.4445 2.17322 26.0305 3.05029C26.6166 3.92735 26.9294 4.9585 26.9294 6.01333C26.9294 7.42782 26.3675 8.78437 25.3673 9.78456C24.3671 10.7848 23.0105 11.3467 21.596 11.3467ZM21.596 2.01333C20.8049 2.01333 20.0315 2.24792 19.3738 2.68745C18.716 3.12698 18.2033 3.75169 17.9005 4.48259C17.5978 5.2135 17.5185 6.01777 17.6729 6.79369C17.8272 7.56961 18.2082 8.28235 18.7676 8.84176C19.327 9.40117 20.0397 9.78213 20.8157 9.93647C21.5916 10.0908 22.3959 10.0116 23.1268 9.70885C23.8577 9.4061 24.4824 8.89341 24.9219 8.23561C25.3614 7.57781 25.596 6.80445 25.596 6.01333C25.596 4.95246 25.1746 3.93505 24.4245 3.1849C23.6743 2.43476 22.6569 2.01333 21.596 2.01333Z" fill="white"/>
<path d="M23.5697 5.33335H22.2364V4.00001C22.2331 3.83004 22.165 3.66774 22.046 3.5463C21.9271 3.42486 21.7662 3.35345 21.5964 3.34668C21.4195 3.34668 21.25 3.41692 21.1249 3.54194C20.9999 3.66697 20.9297 3.83654 20.9297 4.01335V5.34668H19.5964C19.4195 5.34668 19.25 5.41692 19.1249 5.54194C18.9999 5.66697 18.9297 5.83654 18.9297 6.01335C18.9297 6.19016 18.9999 6.35973 19.1249 6.48475C19.25 6.60977 19.4195 6.68001 19.5964 6.68001H20.9297V8.01335C20.9297 8.19016 20.9999 8.35973 21.1249 8.48475C21.25 8.60977 21.4195 8.68001 21.5964 8.68001C21.7732 8.68001 21.9427 8.60977 22.0678 8.48475C22.1928 8.35973 22.263 8.19016 22.263 8.01335V6.68001H23.5964C23.7732 6.68001 23.9427 6.60977 24.0678 6.48475C24.1928 6.35973 24.263 6.19016 24.263 6.01335C24.263 5.83654 24.1928 5.66697 24.0678 5.54194C23.9427 5.41692 23.7732 5.34668 23.5964 5.34668L23.5697 5.33335Z" fill="white"/>
</svg>
