<svg width="30" height="30" viewBox="0 0 30 30" fill="none" xmlns="http://www.w3.org/2000/svg">
<path d="M26.25 3H6.66004C6.47475 3.00641 6.29841 3.08123 6.16504 3.21L9.16504 16.29C9.16504 16.395 9.16504 16.485 9.27004 16.59C9.61974 17.0147 10.0596 17.3563 10.5578 17.5898C11.056 17.8233 11.5999 17.9429 12.15 17.94H23.31C25.0809 17.9204 26.7734 17.2073 28.0242 15.9536C29.2751 14.7 29.9844 13.0059 30 11.235V6.735C29.9961 5.74304 29.5992 4.79306 28.8964 4.09304C28.1936 3.39302 27.242 2.99999 26.25 3Z" fill="#542DED"/>
<path d="M11.295 24C10.7017 24 10.1216 24.1759 9.62829 24.5056C9.13494 24.8352 8.75042 25.3038 8.52336 25.8519C8.2963 26.4001 8.23689 27.0033 8.35264 27.5853C8.4684 28.1672 8.75412 28.7018 9.17368 29.1213C9.59324 29.5409 10.1278 29.8266 10.7097 29.9424C11.2917 30.0581 11.8949 29.9987 12.4431 29.7716C12.9912 29.5446 13.4598 29.1601 13.7894 28.6667C14.1191 28.1734 14.295 27.5933 14.295 27C14.295 26.2044 13.9789 25.4413 13.4163 24.8787C12.8537 24.3161 12.0906 24 11.295 24Z" fill="#161359"/>
<path d="M23.31 30C24.9669 30 26.31 28.6569 26.31 27C26.31 25.3431 24.9669 24 23.31 24C21.6531 24 20.31 25.3431 20.31 27C20.31 28.6569 21.6531 30 23.31 30Z" fill="#161359"/>
<path d="M14.01 22.185H24.21C24.4646 22.185 24.7088 22.0839 24.8888 21.9038C25.0689 21.7238 25.17 21.4796 25.17 21.225C25.17 20.9704 25.0689 20.7262 24.8888 20.5462C24.7088 20.3661 24.4646 20.265 24.21 20.265H14.01C12.8649 20.2686 11.7528 19.8809 10.8581 19.1662C9.96333 18.4515 9.33954 17.4526 9.09 16.335L6.09 3.09C5.89643 2.21799 5.41265 1.43748 4.71782 0.876161C4.02298 0.314843 3.15822 0.00594428 2.265 0H0.96C0.705392 0 0.461212 0.101142 0.281177 0.281177C0.101142 0.461212 0 0.705392 0 0.96C0 1.21461 0.101142 1.45879 0.281177 1.63882C0.461212 1.81886 0.705392 1.92 0.96 1.92H2.265C2.72874 1.91881 3.17905 2.07565 3.5417 2.36468C3.90435 2.65371 4.15771 3.05768 4.26 3.51L7.26 16.755C7.60083 18.2923 8.45504 19.6677 9.68196 20.6547C10.9089 21.6417 12.4354 22.1814 14.01 22.185Z" fill="#161359"/>
</svg>
