<svg width="26" height="26" viewBox="0 0 26 26" fill="none" xmlns="http://www.w3.org/2000/svg">
<path opacity="0.64" d="M9.8246 20.7143C9.31602 20.7143 8.81886 20.8651 8.39599 21.1477C7.97313 21.4302 7.64354 21.8318 7.44891 22.3017C7.25429 22.7715 7.20337 23.2886 7.30258 23.7874C7.4018 24.2862 7.64671 24.7444 8.00633 25.104C8.36595 25.4636 8.82413 25.7085 9.32294 25.8077C9.82175 25.907 10.3388 25.856 10.8086 25.6614C11.2785 25.4668 11.6801 25.1372 11.9627 24.7143C12.2452 24.2915 12.396 23.7943 12.396 23.2857C12.396 22.6037 12.1251 21.9497 11.6429 21.4674C11.1606 20.9852 10.5066 20.7143 9.8246 20.7143Z" fill="#542DED"/>
<path opacity="0.64" d="M20.1232 20.7143C19.6146 20.7143 19.1174 20.8651 18.6946 21.1477C18.2717 21.4302 17.9421 21.8318 17.7475 22.3017C17.5529 22.7715 17.5019 23.2886 17.6012 23.7874C17.7004 24.2862 17.9453 24.7444 18.3049 25.104C18.6645 25.4636 19.1227 25.7085 19.6215 25.8077C20.1203 25.907 20.6374 25.856 21.1072 25.6614C21.5771 25.4668 21.9787 25.1372 22.2613 24.7143C22.5438 24.2915 22.6946 23.7943 22.6946 23.2857C22.6946 22.6037 22.4237 21.9497 21.9415 21.4674C21.4592 20.9852 20.8052 20.7143 20.1232 20.7143Z" fill="#542DED"/>
<path d="M22.643 2.71428H5.85153C5.69272 2.71978 5.54157 2.78391 5.42725 2.89428L7.99867 14.1057C7.99867 14.1957 7.99867 14.2729 8.08867 14.3629C8.38842 14.7269 8.76547 15.0197 9.19247 15.2198C9.61946 15.42 10.0857 15.5225 10.5572 15.52H20.123C21.6408 15.5032 23.0916 14.8919 24.1637 13.8174C25.2358 12.7429 25.8439 11.2907 25.8572 9.77286V5.91571C25.8538 5.06546 25.5137 4.25119 24.9113 3.65118C24.3088 3.05116 23.4932 2.71428 22.643 2.71428V2.71428Z" fill="#542DED"/>
<path opacity="0.8" d="M20.8945 19.1586H12.1516C10.7953 19.1643 9.47792 18.7057 8.41836 17.859C7.3588 17.0123 6.62092 15.8285 6.32735 14.5043L3.75592 3.15144C3.66977 2.77012 3.45831 2.42868 3.15534 2.18164C2.85236 1.9346 2.47535 1.79621 2.0845 1.78858H0.965924C0.747688 1.78858 0.538391 1.70189 0.384076 1.54757C0.22976 1.39325 0.143066 1.18396 0.143066 0.965722C0.143066 0.747486 0.22976 0.538189 0.384076 0.383874C0.538391 0.229558 0.747688 0.142864 0.965924 0.142864H2.0845C2.85673 0.139193 3.60696 0.399959 4.21044 0.881805C4.81391 1.36365 5.23428 2.03754 5.40164 2.79144L7.97307 14.1443C8.18696 15.1023 8.72164 15.9585 9.48856 16.5711C10.2555 17.1837 11.2087 17.5159 12.1902 17.5129H20.9331C21.1513 17.5129 21.3606 17.5996 21.5149 17.7539C21.6692 17.9082 21.7559 18.1175 21.7559 18.3357C21.7559 18.554 21.6692 18.7633 21.5149 18.9176C21.3606 19.0719 21.1513 19.1586 20.9331 19.1586H20.8945Z" fill="#542DED"/>
</svg>
