<svg width="28" height="28" viewBox="0 0 28 28" fill="none" xmlns="http://www.w3.org/2000/svg">
<path opacity="0.64" d="M10.694 21.9999C11.0884 22.0052 11.4724 22.127 11.7978 22.3499C12.1231 22.5728 12.3753 22.887 12.5226 23.2529C12.6699 23.6188 12.7057 24.02 12.6256 24.4062C12.5454 24.7924 12.3529 25.1463 12.0721 25.4233C11.7914 25.7004 11.435 25.8882 11.0478 25.9632C10.6606 26.0383 10.2598 25.9971 9.89592 25.845C9.53202 25.6929 9.22122 25.4366 9.00262 25.1083C8.78401 24.78 8.66735 24.3944 8.66732 23.9999C8.6673 23.735 8.7199 23.4728 8.82207 23.2284C8.92424 22.984 9.07395 22.7623 9.2625 22.5762C9.45105 22.3901 9.67469 22.2434 9.92043 22.1445C10.1662 22.0455 10.4291 21.9964 10.694 21.9999ZM10.694 20.6666C10.0336 20.6613 9.38654 20.8523 8.83488 21.2154C8.28322 21.5784 7.85183 22.0971 7.59544 22.7057C7.33905 23.3143 7.26923 23.9854 7.39482 24.6337C7.52041 25.2821 7.83575 25.8785 8.30085 26.3474C8.76595 26.8162 9.35983 27.1364 10.0071 27.2671C10.6545 27.3979 11.3261 27.3335 11.9367 27.082C12.5473 26.8305 13.0695 26.4033 13.437 25.8546C13.8044 25.3059 14.0006 24.6603 14.0007 23.9999C14.0007 23.1205 13.6532 22.2767 13.0338 21.6523C12.4144 21.0279 11.5734 20.6736 10.694 20.6666V20.6666Z" fill="white"/>
<path opacity="0.64" d="M21.3733 21.9998C21.7671 22.0077 22.1498 22.1317 22.4734 22.3562C22.797 22.5807 23.0471 22.8957 23.1923 23.2618C23.3376 23.6279 23.3715 24.0287 23.2899 24.414C23.2083 24.7993 23.0147 25.1519 22.7335 25.4276C22.4522 25.7033 22.0959 25.8898 21.709 25.9638C21.3222 26.0378 20.9221 25.9959 20.559 25.8435C20.1959 25.691 19.8859 25.4347 19.6678 25.1067C19.4498 24.7787 19.3334 24.3937 19.3333 23.9998C19.3368 23.4705 19.5487 22.9638 19.923 22.5895C20.2973 22.2152 20.804 22.0033 21.3333 21.9998H21.3733ZM21.3333 20.6665C20.6741 20.6665 20.0296 20.862 19.4814 21.2283C18.9333 21.5945 18.506 22.1151 18.2537 22.7242C18.0014 23.3333 17.9354 24.0035 18.0641 24.6501C18.1927 25.2967 18.5101 25.8907 18.9763 26.3569C19.4425 26.823 20.0364 27.1405 20.683 27.2691C21.3296 27.3977 21.9999 27.3317 22.6089 27.0794C23.218 26.8271 23.7386 26.3999 24.1049 25.8517C24.4712 25.3036 24.6667 24.6591 24.6667 23.9998C24.6667 23.1227 24.321 22.2808 23.7045 21.6568C23.088 21.0329 22.2504 20.677 21.3733 20.6665H21.3333Z" fill="white"/>
<path d="M21.3203 16.6664H10.0003C9.24195 16.6562 8.51017 16.3857 7.92757 15.9002C7.34498 15.4148 6.94697 14.7437 6.80025 13.9997L4.58692 4.18637C4.56048 4.08608 4.55733 3.98107 4.57772 3.87937C4.5981 3.77768 4.64148 3.682 4.70453 3.59964C4.76758 3.51729 4.84863 3.45045 4.94149 3.40424C5.03434 3.35803 5.13654 3.33368 5.24025 3.33304H23.9869C24.4292 3.33123 24.8673 3.41746 25.2759 3.58668C25.6845 3.7559 26.0554 4.00473 26.3668 4.31869C26.6783 4.63265 26.9242 5.00545 27.0902 5.41537C27.2562 5.8253 27.3389 6.26415 27.3336 6.70637V10.7064C27.3195 12.2919 26.6798 13.8078 25.5536 14.924C24.4274 16.0402 22.9059 16.6664 21.3203 16.6664V16.6664ZM6.08025 4.66637L8.10692 13.7197C8.19172 14.164 8.42558 14.566 8.76984 14.8594C9.1141 15.1527 9.54815 15.3198 10.0003 15.333H21.2669C21.8865 15.3419 22.5016 15.2273 23.0764 14.9959C23.6511 14.7645 24.1741 14.421 24.6147 13.9853C25.0553 13.5497 25.4047 13.0307 25.6426 12.4585C25.8805 11.8864 26.0021 11.2726 26.0003 10.653V6.65303C25.9985 6.39039 25.945 6.13066 25.8429 5.88868C25.7408 5.64669 25.592 5.42719 25.4051 5.24271C25.2181 5.05823 24.9966 4.91238 24.7533 4.8135C24.51 4.71461 24.2496 4.66461 23.9869 4.66637H6.08025Z" fill="white"/>
<path opacity="0.8" d="M22.0003 20.0132H12.947C11.5821 20.0187 10.2563 19.5577 9.18931 18.7066C8.12233 17.8554 7.37822 16.6652 7.08033 15.3332L4.41366 3.57318C4.31761 3.13301 4.07576 2.73816 3.72728 2.4526C3.37881 2.16705 2.94412 2.00751 2.49366 1.99985H1.33366C1.15792 1.99644 0.990323 1.9251 0.866031 1.80081C0.741739 1.67652 0.670406 1.50893 0.666992 1.33318C0.666992 1.15637 0.73723 0.986803 0.862254 0.861779C0.987279 0.736755 1.15685 0.666517 1.33366 0.666517H2.49366C3.26114 0.664383 4.00547 0.929289 4.59904 1.41582C5.19261 1.90235 5.59845 2.58021 5.74699 3.33318L8.41366 15.0932C8.6421 16.1314 9.21914 17.0601 10.0488 17.7248C10.8784 18.3895 11.9106 18.75 12.9737 18.7465H22.0003C22.1771 18.7465 22.3467 18.8168 22.4717 18.9418C22.5968 19.0668 22.667 19.2364 22.667 19.4132C22.6504 19.5782 22.5729 19.7311 22.4496 19.8421C22.3264 19.953 22.1662 20.014 22.0003 20.0132V20.0132Z" fill="white"/>
</svg>
