<svg width="20" height="20" viewBox="0 0 20 20" fill="none" xmlns="http://www.w3.org/2000/svg">
<path opacity="0.64" d="M7.52979 16C7.13422 16 6.74754 16.1173 6.41865 16.3371C6.08975 16.5568 5.8334 16.8692 5.68203 17.2346C5.53065 17.6001 5.49105 18.0022 5.56822 18.3902C5.64539 18.7781 5.83587 19.1345 6.11557 19.4142C6.39528 19.6939 6.75164 19.8844 7.13961 19.9616C7.52757 20.0387 7.9297 19.9991 8.29515 19.8478C8.66061 19.6964 8.97296 19.44 9.19272 19.1111C9.41249 18.7822 9.52979 18.3956 9.52979 18C9.52979 17.4696 9.31907 16.9609 8.944 16.5858C8.56893 16.2107 8.06022 16 7.52979 16Z" fill="white"/>
<path opacity="0.64" d="M15.54 16C15.1445 16 14.7578 16.1173 14.4289 16.3371C14.1 16.5568 13.8437 16.8692 13.6923 17.2346C13.5409 17.6001 13.5013 18.0022 13.5785 18.3902C13.6556 18.7781 13.8461 19.1345 14.1258 19.4142C14.4055 19.6939 14.7619 19.8844 15.1499 19.9616C15.5378 20.0387 15.94 19.9991 16.3054 19.8478C16.6709 19.6964 16.9832 19.44 17.203 19.1111C17.4227 18.7822 17.54 18.3956 17.54 18C17.54 17.4696 17.3293 16.9609 16.9543 16.5858C16.5792 16.2107 16.0705 16 15.54 16Z" fill="white"/>
<path d="M17.4999 2H4.43986C4.31634 2.00428 4.19878 2.05415 4.10986 2.14L6.10986 10.86C6.10986 10.93 6.10986 10.99 6.17986 11.06C6.413 11.3432 6.70626 11.5708 7.03837 11.7265C7.37048 11.8822 7.73309 11.962 8.09986 11.96H15.5399C16.7204 11.947 17.8488 11.4715 18.6827 10.6358C19.5165 9.8 19.9895 8.67057 19.9999 7.49V4.49C19.9972 3.82869 19.7327 3.19537 19.2641 2.72869C18.7955 2.26201 18.1612 1.99999 17.4999 2Z" fill="white"/>
<path opacity="0.8" d="M16.14 14.79H9.34C8.2851 14.7945 7.26044 14.4378 6.43634 13.7792C5.61224 13.1207 5.03833 12.1999 4.81 11.17L2.81 2.34003C2.74299 2.04345 2.57852 1.77789 2.34288 1.58575C2.10723 1.3936 1.81399 1.28597 1.51 1.28003H0.64C0.470262 1.28003 0.307475 1.2126 0.187452 1.09258C0.0674283 0.972555 0 0.809768 0 0.64003C0 0.470291 0.0674283 0.307505 0.187452 0.187481C0.307475 0.0674581 0.470262 2.97494e-05 0.64 2.97494e-05H1.51C2.11063 -0.00282597 2.69414 0.199992 3.16351 0.574762C3.63288 0.949531 3.95983 1.47367 4.09 2.06003L6.09 10.89C6.25636 11.6351 6.67222 12.301 7.26872 12.7775C7.86522 13.254 8.60657 13.5124 9.37 13.51H16.17C16.3397 13.51 16.5025 13.5775 16.6225 13.6975C16.7426 13.8175 16.81 13.9803 16.81 14.15C16.81 14.3198 16.7426 14.4826 16.6225 14.6026C16.5025 14.7226 16.3397 14.79 16.17 14.79H16.14Z" fill="white"/>
</svg>
