<svg width="417" height="321" viewBox="0 0 417 321" fill="none" xmlns="http://www.w3.org/2000/svg">
<path d="M67.67 0H411.264C412.785 0 414.244 0.601831 415.32 1.6731C416.396 2.74437 417 4.19732 417 5.71233V241.321H61.9336V5.71233C61.9336 4.19732 62.538 2.74437 63.6137 1.6731C64.6895 0.601831 66.1486 0 67.67 0Z" fill="#5468FF"/>
<path d="M67.67 0H411.264C412.785 0 414.244 0.601831 415.32 1.6731C416.396 2.74437 417 4.19732 417 5.71233V11.4899H61.9336V5.71233C61.9336 4.19732 62.538 2.74437 63.6137 1.6731C64.6895 0.601831 66.1486 0 67.67 0Z" fill="#5468FF"/>
<path d="M258.656 229.374V205.833C258.656 205.557 258.711 205.284 258.817 205.029C258.923 204.774 259.079 204.542 259.275 204.347C259.471 204.151 259.703 203.997 259.959 203.891C260.216 203.785 260.49 203.731 260.767 203.731H292.419V231.15L258.656 229.374Z" fill="#5468FF"/>
<path opacity="0.3" d="M258.656 229.374V205.833C258.656 205.557 258.711 205.284 258.817 205.029C258.923 204.774 259.079 204.542 259.275 204.347C259.471 204.151 259.703 203.997 259.959 203.891C260.216 203.785 260.49 203.731 260.767 203.731H292.419V231.15L258.656 229.374Z" fill="#000D44"/>
<path opacity="0.2" d="M67.67 0H411.264C412.785 0 414.244 0.601831 415.32 1.6731C416.396 2.74437 417 4.19732 417 5.71233V11.4899H61.9336V5.71233C61.9336 4.19732 62.538 2.74437 63.6137 1.6731C64.6895 0.601831 66.1486 0 67.67 0Z" fill="#000D44"/>
<path d="M75.6941 7.0702C76.4291 7.0702 77.025 6.47686 77.025 5.74494C77.025 5.01302 76.4291 4.41968 75.6941 4.41968C74.9591 4.41968 74.3633 5.01302 74.3633 5.74494C74.3633 6.47686 74.9591 7.0702 75.6941 7.0702Z" fill="white"/>
<path d="M82.7947 7.0702C83.5297 7.0702 84.1255 6.47686 84.1255 5.74494C84.1255 5.01302 83.5297 4.41968 82.7947 4.41968C82.0597 4.41968 81.4639 5.01302 81.4639 5.74494C81.4639 6.47686 82.0597 7.0702 82.7947 7.0702Z" fill="white"/>
<path d="M89.8943 7.0702C90.6293 7.0702 91.2252 6.47686 91.2252 5.74494C91.2252 5.01302 90.6293 4.41968 89.8943 4.41968C89.1593 4.41968 88.5635 5.01302 88.5635 5.74494C88.5635 6.47686 89.1593 7.0702 89.8943 7.0702Z" fill="white"/>
<path d="M393.976 34.4763H388.652V241.321H393.976V34.4763Z" fill="white"/>
<path d="M222.605 54.8057H196.86V76.0229H222.605V54.8057Z" fill="white"/>
<path d="M222.605 79.5547H196.86V100.772H222.605V79.5547Z" fill="white"/>
<path d="M222.605 104.31H196.86V125.528H222.605V104.31Z" fill="white"/>
<path d="M316.702 57.4563H239.474V63.6452H316.702V57.4563Z" fill="white"/>
<path d="M316.702 69.834H239.474V76.0229H316.702V69.834Z" fill="white"/>
<path d="M222.605 20.7146H196.86V41.9318H222.605V20.7146Z" fill="white"/>
<path d="M316.702 23.365H239.474V29.5539H316.702V23.365Z" fill="white"/>
<path d="M316.702 35.7363H239.474V41.9252H316.702V35.7363Z" fill="white"/>
<path d="M222.605 135.614H196.86V156.831H222.605V135.614Z" fill="white"/>
<path d="M316.702 138.264H239.474V144.453H316.702V138.264Z" fill="white"/>
<path d="M316.702 150.636H239.474V156.825H316.702V150.636Z" fill="white"/>
<path d="M361.085 87.5127H239.474V93.7016H361.085V87.5127Z" fill="white"/>
<path d="M297.047 226.717H248.736C246.879 226.717 245.373 228.217 245.373 230.066V281.706C245.373 283.555 246.879 285.055 248.736 285.055H297.047C298.904 285.055 300.41 283.555 300.41 281.706V230.066C300.41 228.217 298.904 226.717 297.047 226.717Z" fill="#5468FF"/>
<path opacity="0.2" d="M297.047 226.717H248.736C246.879 226.717 245.373 228.217 245.373 230.066V281.706C245.373 283.555 246.879 285.055 248.736 285.055H297.047C298.904 285.055 300.41 283.555 300.41 281.706V230.066C300.41 228.217 298.904 226.717 297.047 226.717Z" fill="#000D44"/>
<path d="M306.684 107.842H248.592C245.514 107.842 243.02 110.326 243.02 113.391V117.321C243.02 120.386 245.514 122.87 248.592 122.87H306.684C309.761 122.87 312.256 120.386 312.256 117.321V113.391C312.256 110.326 309.761 107.842 306.684 107.842Z" fill="white"/>
<path d="M121.415 176.514H77.917V202.151H121.415V176.514Z" fill="white"/>
<path d="M165.798 179.165H126.738V182.703H165.798V179.165Z" fill="white"/>
<path d="M153.368 184.472H126.738V188.011H153.368V184.472Z" fill="white"/>
<path d="M235.035 195.962H126.738V199.501H235.035V195.962Z" fill="white"/>
<path d="M343.305 234.675H303.668C301.376 234.675 299.519 236.525 299.519 238.808V278.278C299.519 280.561 301.376 282.411 303.668 282.411H343.305C345.597 282.411 347.455 280.561 347.455 278.278V238.808C347.455 236.525 345.597 234.675 343.305 234.675Z" fill="#5468FF"/>
<path opacity="0.4" d="M343.305 234.675H303.668C301.376 234.675 299.519 236.525 299.519 238.808V278.278C299.519 280.561 301.376 282.411 303.668 282.411H343.305C345.597 282.411 347.455 280.561 347.455 278.278V238.808C347.455 236.525 345.597 234.675 343.305 234.675Z" fill="#000D44"/>
<path d="M276.836 212.597L298.234 183.395C298.58 182.924 299.095 182.605 299.673 182.505C300.25 182.406 300.843 182.533 301.328 182.86L327.034 200.199L318.157 234.675H301.269L277.255 215.665C276.804 215.304 276.51 214.785 276.432 214.214C276.354 213.643 276.498 213.064 276.836 212.597Z" fill="#5468FF"/>
<path opacity="0.5" d="M276.836 212.597L298.234 183.395C298.58 182.924 299.095 182.605 299.673 182.505C300.25 182.406 300.843 182.533 301.328 182.86L327.034 200.199L318.157 234.675H301.269L277.255 215.665C276.804 215.304 276.51 214.785 276.432 214.214C276.354 213.643 276.498 213.064 276.836 212.597Z" fill="#000D44"/>
<path d="M305.714 227.324L326.182 182.749C326.64 181.751 327.477 180.975 328.51 180.592C329.543 180.208 330.686 180.249 331.688 180.705L376.478 201.119C376.977 201.347 377.425 201.67 377.798 202.07C378.17 202.47 378.459 202.94 378.649 203.452C378.838 203.964 378.924 204.509 378.902 205.054C378.879 205.599 378.748 206.135 378.517 206.629L358.037 250.448C357.578 251.429 356.752 252.193 355.734 252.575C354.717 252.957 353.59 252.927 352.595 252.491L307.825 232.828C307.321 232.607 306.866 232.289 306.487 231.892C306.107 231.495 305.811 231.027 305.614 230.515C305.418 230.003 305.326 229.458 305.343 228.91C305.36 228.362 305.486 227.823 305.714 227.324Z" fill="#5468FF"/>
<path opacity="0.2" d="M305.714 227.324L326.182 182.749C326.64 181.751 327.477 180.975 328.51 180.592C329.543 180.208 330.686 180.249 331.688 180.705L376.478 201.119C376.977 201.347 377.425 201.67 377.798 202.07C378.17 202.47 378.459 202.94 378.649 203.452C378.838 203.964 378.924 204.509 378.902 205.054C378.879 205.599 378.748 206.135 378.517 206.629L358.037 250.448C357.578 251.429 356.752 252.193 355.734 252.575C354.717 252.957 353.59 252.927 352.595 252.491L307.825 232.828C307.321 232.607 306.866 232.289 306.487 231.892C306.107 231.495 305.811 231.027 305.614 230.515C305.418 230.003 305.326 229.458 305.343 228.91C305.36 228.362 305.486 227.823 305.714 227.324Z" fill="#000D44"/>
<path d="M312.893 255.821H314.709V256.898C314.949 256.526 315.278 256.219 315.666 256.004C316.065 255.776 316.517 255.656 316.977 255.658C317.391 255.654 317.801 255.741 318.178 255.914C318.554 256.087 318.887 256.34 319.154 256.656C319.789 257.442 320.107 258.437 320.045 259.444C320.11 260.473 319.79 261.489 319.147 262.297C318.887 262.614 318.56 262.87 318.189 263.047C317.819 263.224 317.414 263.318 317.003 263.322C316.622 263.327 316.245 263.244 315.902 263.08C315.507 262.869 315.154 262.588 314.859 262.251V265.933H312.893V255.821ZM314.82 259.359C314.769 260.005 314.943 260.648 315.312 261.181C315.453 261.364 315.635 261.512 315.843 261.614C316.051 261.716 316.28 261.769 316.511 261.768C316.729 261.77 316.943 261.723 317.139 261.629C317.335 261.535 317.506 261.397 317.639 261.226C317.986 260.702 318.145 260.076 318.091 259.451C318.137 258.844 317.973 258.24 317.626 257.74C317.491 257.565 317.318 257.423 317.119 257.325C316.919 257.228 316.7 257.178 316.479 257.179C316.252 257.175 316.028 257.222 315.822 257.317C315.616 257.412 315.435 257.552 315.292 257.727C314.944 258.197 314.776 258.776 314.82 259.359Z" fill="white"/>
<path d="M323.559 253.033V256.748C323.961 256.245 324.519 255.889 325.145 255.736C325.771 255.582 326.431 255.64 327.021 255.899C327.346 256.04 327.627 256.265 327.834 256.552C328.016 256.809 328.143 257.1 328.208 257.407C328.287 257.888 328.32 258.376 328.306 258.863V263.159H326.339V259.274C326.365 258.784 326.328 258.293 326.228 257.812C326.157 257.607 326.018 257.432 325.834 257.316C325.623 257.188 325.38 257.124 325.133 257.133C324.828 257.128 324.528 257.21 324.267 257.368C324.007 257.533 323.81 257.782 323.71 258.073C323.573 258.526 323.514 258.998 323.533 259.47V263.139H321.566V253.033H323.559Z" fill="white"/>
<path d="M330.22 255.821H332.036V256.898C332.277 256.526 332.605 256.219 332.993 256.004C333.392 255.776 333.844 255.656 334.304 255.658C334.719 255.654 335.129 255.741 335.505 255.914C335.881 256.087 336.215 256.34 336.481 256.656C337.117 257.442 337.435 258.437 337.373 259.444C337.438 260.473 337.118 261.489 336.474 262.297C336.209 262.618 335.876 262.875 335.498 263.052C335.121 263.228 334.708 263.318 334.291 263.315C333.91 263.32 333.533 263.238 333.19 263.074C332.795 262.862 332.442 262.581 332.147 262.245V265.933H330.181L330.22 255.821ZM332.147 259.359C332.097 260.005 332.27 260.648 332.639 261.181C332.78 261.364 332.962 261.512 333.17 261.614C333.378 261.716 333.607 261.769 333.839 261.768C334.056 261.77 334.271 261.723 334.466 261.629C334.662 261.535 334.833 261.397 334.967 261.226C335.313 260.702 335.473 260.076 335.419 259.451C335.465 258.844 335.301 258.24 334.953 257.74C334.819 257.565 334.645 257.423 334.446 257.325C334.247 257.228 334.028 257.178 333.806 257.179C333.579 257.175 333.355 257.222 333.149 257.317C332.944 257.412 332.763 257.552 332.619 257.727C332.271 258.197 332.104 258.776 332.147 259.359Z" fill="white"/>
<path d="M327.205 207.282C327.632 206.421 328.267 205.679 329.053 205.122C329.833 204.544 330.77 204.214 331.741 204.175C332.745 204.144 333.74 204.369 334.632 204.828C335.313 205.131 335.922 205.571 336.423 206.121C336.924 206.67 337.305 207.317 337.543 208.02C337.776 208.723 337.864 209.465 337.801 210.202C337.737 210.939 337.525 211.656 337.176 212.309C336.867 212.99 336.424 213.602 335.872 214.108C335.32 214.614 334.671 215.003 333.964 215.254C333.267 215.5 332.526 215.6 331.788 215.547C331.05 215.494 330.331 215.29 329.676 214.947C328.792 214.515 328.021 213.882 327.428 213.099C326.829 212.336 326.489 211.403 326.457 210.436C326.436 209.339 326.693 208.254 327.205 207.282ZM329.768 208.706C329.322 209.473 329.18 210.379 329.368 211.245C329.46 211.588 329.625 211.907 329.851 212.181C330.077 212.455 330.36 212.678 330.68 212.834C330.999 212.991 331.349 213.077 331.705 213.088C332.061 213.099 332.416 213.034 332.744 212.897C333.55 212.508 334.183 211.836 334.521 211.01C334.963 210.248 335.106 209.351 334.921 208.49C334.829 208.147 334.664 207.828 334.438 207.554C334.212 207.28 333.929 207.057 333.609 206.901C333.29 206.744 332.94 206.658 332.584 206.647C332.228 206.636 331.873 206.702 331.545 206.839C330.74 207.219 330.106 207.885 329.768 208.706Z" fill="white"/>
<path d="M338.638 212.871C339.065 212.009 339.701 211.267 340.486 210.71C341.264 210.133 342.199 209.803 343.168 209.763C344.172 209.732 345.167 209.957 346.059 210.416C346.739 210.719 347.349 211.16 347.85 211.709C348.35 212.258 348.732 212.905 348.97 213.608C349.202 214.311 349.29 215.053 349.226 215.79C349.163 216.527 348.951 217.244 348.603 217.897C348.293 218.577 347.849 219.188 347.297 219.692C346.745 220.197 346.096 220.586 345.39 220.835C344.693 221.082 343.952 221.182 343.214 221.129C342.476 221.077 341.757 220.872 341.103 220.528C340.218 220.096 339.448 219.463 338.854 218.681C338.255 217.918 337.916 216.985 337.884 216.017C337.866 214.922 338.125 213.84 338.638 212.871ZM341.201 214.294C340.755 215.061 340.613 215.967 340.801 216.833C340.893 217.176 341.058 217.495 341.284 217.769C341.51 218.043 341.793 218.266 342.113 218.423C342.432 218.579 342.782 218.666 343.138 218.676C343.494 218.687 343.849 218.622 344.177 218.485C344.983 218.096 345.616 217.424 345.954 216.598C346.394 215.836 346.535 214.938 346.347 214.078C346.255 213.736 346.09 213.416 345.864 213.142C345.638 212.868 345.356 212.645 345.036 212.489C344.716 212.333 344.366 212.246 344.01 212.235C343.654 212.225 343.3 212.29 342.971 212.427C342.169 212.808 341.538 213.474 341.201 214.294Z" fill="white"/>
<path d="M352.91 214.02L355.303 215.188L354.601 216.611C355.159 216.275 355.792 216.08 356.443 216.043C357.123 216.004 357.801 216.144 358.41 216.448C358.958 216.711 359.441 217.091 359.824 217.562C360.207 218.033 360.481 218.582 360.626 219.17C360.948 220.621 360.715 222.139 359.97 223.427C359.386 224.827 358.303 225.961 356.928 226.613C356.37 226.864 355.763 226.989 355.151 226.978C354.539 226.966 353.936 226.819 353.388 226.547C352.877 226.309 352.428 225.956 352.077 225.516C351.693 224.984 351.408 224.387 351.238 223.753L348.838 228.624L346.269 227.37L352.91 214.02ZM353.146 219.934C352.658 220.753 352.468 221.715 352.608 222.657C352.673 222.99 352.816 223.305 353.024 223.574C353.232 223.844 353.501 224.062 353.808 224.21C354.094 224.352 354.409 224.426 354.729 224.426C355.049 224.426 355.364 224.352 355.65 224.21C356.45 223.741 357.066 223.016 357.4 222.154C357.855 221.383 358.031 220.479 357.899 219.595C357.835 219.276 357.697 218.976 357.497 218.719C357.297 218.461 357.039 218.254 356.745 218.113C356.449 217.962 356.122 217.88 355.789 217.873C355.456 217.866 355.126 217.935 354.824 218.074C354.058 218.473 353.463 219.133 353.146 219.934Z" fill="white"/>
<path d="M293.474 213.706L294.785 211.976L300.252 216.135C300.824 216.538 301.333 217.024 301.76 217.577C302.131 218.115 302.311 218.761 302.272 219.412C302.197 220.184 301.888 220.915 301.387 221.508C301.136 221.883 300.809 222.203 300.428 222.447C300.046 222.691 299.618 222.853 299.171 222.924C298.211 222.973 297.271 222.648 296.548 222.017L297.617 220.234C297.97 220.52 298.385 220.719 298.83 220.816C299.045 220.842 299.264 220.81 299.461 220.721C299.659 220.632 299.828 220.491 299.951 220.313C300.084 220.171 300.181 219.998 300.233 219.811C300.284 219.623 300.289 219.426 300.246 219.236C299.974 218.699 299.559 218.247 299.046 217.93L293.474 213.706Z" fill="white"/>
<path d="M301.708 214.973L302.842 213.158C303.363 213.464 303.975 213.582 304.573 213.491C305.129 213.348 305.613 213.01 305.937 212.538C306.313 212.113 306.529 211.57 306.546 211.004C306.551 210.8 306.507 210.599 306.42 210.415C306.332 210.232 306.203 210.071 306.042 209.946C305.856 209.798 305.624 209.722 305.386 209.731C305.077 209.769 304.784 209.886 304.534 210.07C304.307 210.218 303.826 210.586 303.092 211.173C302.415 211.782 301.608 212.229 300.731 212.479C300.325 212.568 299.904 212.567 299.499 212.476C299.093 212.384 298.712 212.205 298.384 211.95C297.944 211.619 297.614 211.164 297.434 210.645C297.241 210.084 297.223 209.479 297.381 208.908C297.581 208.208 297.92 207.555 298.378 206.989C298.982 206.069 299.899 205.397 300.961 205.095C301.405 205.005 301.864 205.01 302.307 205.112C302.749 205.213 303.164 205.408 303.524 205.683L302.272 207.478C301.881 207.237 301.414 207.149 300.961 207.23C300.495 207.39 300.096 207.7 299.827 208.112C299.482 208.511 299.273 209.009 299.23 209.535C299.228 209.662 299.257 209.787 299.314 209.901C299.371 210.015 299.455 210.113 299.558 210.188C299.66 210.264 299.777 210.316 299.902 210.34C300.028 210.363 300.156 210.358 300.279 210.325C300.947 210.055 301.559 209.663 302.082 209.169C302.71 208.622 303.401 208.151 304.14 207.766C304.64 207.529 305.196 207.432 305.747 207.485C306.353 207.572 306.925 207.82 307.402 208.202C307.88 208.585 308.245 209.088 308.461 209.659C308.683 210.267 308.708 210.929 308.533 211.552C308.301 212.321 307.92 213.037 307.412 213.661C306.789 214.615 305.838 215.311 304.737 215.619C303.681 215.802 302.596 215.57 301.708 214.973Z" fill="white"/>
<path d="M311.004 208.653L302.363 202.086L304.501 199.298C305.002 198.589 305.576 197.933 306.212 197.34C306.725 196.943 307.359 196.734 308.008 196.746C308.765 196.769 309.492 197.045 310.073 197.529C310.549 197.866 310.934 198.314 311.194 198.835C311.399 199.264 311.498 199.737 311.483 200.212C311.471 200.632 311.375 201.044 311.201 201.426C310.84 202.095 310.419 202.728 309.942 203.32L309.076 204.456L312.354 206.93L311.004 208.653ZM305.156 201.472L307.608 203.333L308.336 202.38C308.716 201.938 309.025 201.44 309.254 200.904C309.343 200.622 309.343 200.318 309.254 200.036C309.156 199.753 308.973 199.507 308.729 199.331C308.451 199.104 308.097 198.992 307.739 199.017C307.396 199.045 307.072 199.188 306.821 199.422C306.453 199.799 306.113 200.203 305.805 200.63L305.156 201.472Z" fill="white"/>
<path d="M270.889 219.04L270.161 219.993L268.85 219.621L267.539 221.357L268.254 222.467L267.539 223.394L264.478 218.387L265.186 217.46L270.889 219.04ZM267.926 219.34L265.848 218.687L267.015 220.502L267.926 219.34Z" fill="white"/>
<path d="M271.249 218.57L266.89 215.254L267.965 213.85C268.219 213.491 268.508 213.158 268.83 212.858C269.089 212.658 269.408 212.552 269.735 212.557C270.117 212.568 270.484 212.706 270.777 212.949C271.016 213.117 271.21 213.342 271.341 213.602C271.445 213.82 271.495 214.059 271.485 214.3C271.479 214.512 271.43 214.721 271.341 214.914C271.152 215.251 270.933 215.57 270.686 215.867L270.246 216.442L271.892 217.695L271.249 218.57ZM268.299 214.94L269.538 215.88L269.905 215.404C270.098 215.181 270.255 214.93 270.371 214.659C270.416 214.517 270.416 214.364 270.371 214.222C270.323 214.078 270.231 213.953 270.109 213.863C269.969 213.749 269.79 213.693 269.61 213.706C269.436 213.72 269.271 213.794 269.145 213.915C268.959 214.104 268.788 214.307 268.634 214.522L268.299 214.94Z" fill="white"/>
<path d="M274.358 214.516L269.998 211.199L270.654 210.325L272.62 211.794L272.043 208.529L272.948 207.354L273.394 210.279L277.38 210.579L276.488 211.748L273.525 211.389L273.709 212.655L275.02 213.654L274.358 214.516Z" fill="white"/>
<path d="M111.391 21.4065H90.6221V22.8623H111.391V21.4065Z" fill="white"/>
<path d="M95.7751 24.7163H92.3398V26.1721H95.7751V24.7163Z" fill="white"/>
<path d="M95.7751 28.0264H92.3398V29.4822H95.7751V28.0264Z" fill="white"/>
<path d="M95.7751 31.3296H92.3398V32.7854H95.7751V31.3296Z" fill="white"/>
<path d="M113.037 24.7163H102.495V26.1721H113.037V24.7163Z" fill="white"/>
<path d="M113.037 28.0264H102.495V29.4822H113.037V28.0264Z" fill="white"/>
<path d="M113.037 31.3296H102.495V32.7854H113.037V31.3296Z" fill="white"/>
<path d="M99.6828 24.7163H97.2637V26.1721H99.6828V24.7163Z" fill="white"/>
<path d="M99.6828 28.0264H97.2637V29.4822H99.6828V28.0264Z" fill="white"/>
<path d="M99.6828 31.3296H97.2637V32.7854H99.6828V31.3296Z" fill="white"/>
<path d="M101.367 24.7163H100.725V26.1721H101.367V24.7163Z" fill="white"/>
<path d="M101.367 28.0264H100.725V29.4822H101.367V28.0264Z" fill="white"/>
<path d="M101.367 31.3296H100.725V32.7854H101.367V31.3296Z" fill="white"/>
<path d="M91.3437 24.7163H90.7012V26.1721H91.3437V24.7163Z" fill="white"/>
<path d="M91.3437 28.0264H90.7012V29.4822H91.3437V28.0264Z" fill="white"/>
<path d="M91.3437 31.3296H90.7012V32.7854H91.3437V31.3296Z" fill="white"/>
<path d="M97.6501 37.9495H92.3398V39.4053H97.6501V37.9495Z" fill="white"/>
<path d="M113.036 37.9495H104.992V39.4053H113.036V37.9495Z" fill="white"/>
<path d="M102.179 37.9495H99.1309V39.4053H102.179V37.9495Z" fill="white"/>
<path d="M103.865 37.9495H103.223V39.4053H103.865V37.9495Z" fill="white"/>
<path d="M138.257 44.5627H113.345V46.0186H138.257V44.5627Z" fill="white"/>
<path d="M111.391 44.5627H99.4463V46.0186H111.391V44.5627Z" fill="white"/>
<path d="M130.448 37.9495H122.404V39.4053H130.448V37.9495Z" fill="white"/>
<path d="M119.593 37.9495H115.299V39.4053H119.593V37.9495Z" fill="white"/>
<path d="M121.277 37.9495H120.635V39.4053H121.277V37.9495Z" fill="white"/>
<path d="M131.897 37.9495H131.255V39.4053H131.897V37.9495Z" fill="white"/>
<path d="M91.3437 37.9495H90.7012V39.4053H91.3437V37.9495Z" fill="white"/>
<path d="M97.6501 51.1758H92.3398V52.6316H97.6501V51.1758Z" fill="white"/>
<path d="M91.3437 51.1758H90.7012V52.6316H91.3437V51.1758Z" fill="white"/>
<path d="M99.3085 51.1758H98.666V52.6316H99.3085V51.1758Z" fill="white"/>
<path d="M93.5915 64.4023H88.2812V65.8582H93.5915V64.4023Z" fill="white"/>
<path d="M87.2916 64.4023H86.6426V65.8582H87.2916V64.4023Z" fill="white"/>
<path d="M95.2509 64.4023H94.6084V65.8582H95.2509V64.4023Z" fill="white"/>
<path d="M95.7948 47.866H95.1523V49.3218H95.7948V47.866Z" fill="white"/>
<path d="M98.2729 41.2527H95.1523V42.7085H98.2729V41.2527Z" fill="white"/>
<path d="M111.627 41.2527H99.4463V42.7085H111.627V41.2527Z" fill="white"/>
<path d="M130.993 24.7163H120.451V26.1721H130.993V24.7163Z" fill="white"/>
<path d="M130.993 28.0264H120.451V29.4822H130.993V28.0264Z" fill="white"/>
<path d="M130.993 31.3296H120.451V32.7854H130.993V31.3296Z" fill="white"/>
<path d="M149.973 24.7163H131.544V26.1721H149.973V24.7163Z" fill="white"/>
<path d="M156.764 28.0264H131.544V29.4822H156.764V28.0264Z" fill="white"/>
<path d="M161.295 31.3296H131.544V32.7854H161.295V31.3296Z" fill="white"/>
<path d="M117.639 24.7163H115.22V26.1721H117.639V24.7163Z" fill="white"/>
<path d="M117.639 28.0264H115.22V29.4822H117.639V28.0264Z" fill="white"/>
<path d="M117.639 31.3296H115.22V32.7854H117.639V31.3296Z" fill="white"/>
<path d="M119.33 24.7163H118.688V26.1721H119.33V24.7163Z" fill="white"/>
<path d="M119.33 28.0264H118.688V29.4822H119.33V28.0264Z" fill="white"/>
<path d="M119.33 31.3296H118.688V32.7854H119.33V31.3296Z" fill="white"/>
<path d="M153.034 24.7163H152.392V26.1721H153.034V24.7163Z" fill="white"/>
<path d="M159.229 28.0264H158.587V29.4822H159.229V28.0264Z" fill="white"/>
<path d="M163.445 31.3296H162.803V32.7854H163.445V31.3296Z" fill="white"/>
<path d="M111.391 34.6394H90.6221V36.0952H111.391V34.6394Z" fill="white"/>
<path d="M91.5593 71.4333H88.124V72.8892H91.5593V71.4333Z" fill="white"/>
<path d="M99.6033 78.0532H96.168V79.5091H99.6033V78.0532Z" fill="white"/>
<path d="M129.118 78.0532H106.316V79.5091H129.118V78.0532Z" fill="white"/>
<path d="M124.28 74.7434H90.8584V76.1992H124.28V74.7434Z" fill="white"/>
<path d="M103.504 78.0532H101.085V79.5091H103.504V78.0532Z" fill="white"/>
<path d="M105.195 78.0532H104.553V79.5091H105.195V78.0532Z" fill="white"/>
<path d="M87.1278 71.4333H86.4854V72.8892H87.1278V71.4333Z" fill="white"/>
<path d="M92.9823 71.4333H92.3398V72.8892H92.9823V71.4333Z" fill="white"/>
<path d="M102.338 81.3564H100.777V82.8123H102.338V81.3564Z" fill="white"/>
<path d="M99.7733 81.3564H99.1309V82.8123H99.7733V81.3564Z" fill="white"/>
<path d="M103.76 81.3564H103.117V82.8123H103.76V81.3564Z" fill="white"/>
<path d="M106.71 87.9697H105.149V89.4256H106.71V87.9697Z" fill="white"/>
<path d="M104.146 87.9697H103.504V89.4256H104.146V87.9697Z" fill="white"/>
<path d="M108.133 87.9697H107.49V89.4256H108.133V87.9697Z" fill="white"/>
<path d="M95.1718 78.0532H94.5293V79.5091H95.1718V78.0532Z" fill="white"/>
<path d="M136.546 84.6665H103.583V86.1223H136.546V84.6665Z" fill="white"/>
<path d="M130.541 78.0532H129.898V79.5091H130.541V78.0532Z" fill="white"/>
<path d="M119.199 54.4792H90.6221V55.9351H119.199V54.4792Z" fill="white"/>
<path d="M132.947 57.7891H90.6221V59.2449H132.947V57.7891Z" fill="white"/>
<path d="M104.993 61.0925H90.6221V62.5484H104.993V61.0925Z" fill="white"/>
<path d="M80.782 21.4065H79.2217V22.8623H80.782V21.4065Z" fill="white"/>
<path d="M80.782 24.7163H79.2217V26.1721H80.782V24.7163Z" fill="white"/>
<path d="M80.782 28.0264H79.2217V29.4822H80.782V28.0264Z" fill="white"/>
<path d="M80.782 31.3296H79.2217V32.7854H80.782V31.3296Z" fill="white"/>
<path d="M80.782 34.6394H79.2217V36.0952H80.782V34.6394Z" fill="white"/>
<path d="M80.782 37.9495H79.2217V39.4053H80.782V37.9495Z" fill="white"/>
<path d="M80.782 41.2527H79.2217V42.7085H80.782V41.2527Z" fill="white"/>
<path d="M80.782 44.5627H79.2217V46.0186H80.782V44.5627Z" fill="white"/>
<path d="M80.782 47.866H79.2217V49.3218H80.782V47.866Z" fill="white"/>
<path d="M80.782 51.1758H79.2217V52.6316H80.782V51.1758Z" fill="white"/>
<path d="M80.782 54.4792H79.2217V55.9351H80.782V54.4792Z" fill="white"/>
<path d="M80.782 57.7891H79.2217V59.2449H80.782V57.7891Z" fill="white"/>
<path d="M80.782 61.0925H79.2217V62.5484H80.782V61.0925Z" fill="white"/>
<path d="M80.782 64.4023H79.2217V65.8582H80.782V64.4023Z" fill="white"/>
<path d="M80.782 67.7122H79.2217V69.168H80.782V67.7122Z" fill="white"/>
<path d="M80.782 71.0156H79.2217V72.4715H80.782V71.0156Z" fill="white"/>
<path d="M80.782 74.3254H79.2217V75.7813H80.782V74.3254Z" fill="white"/>
<path d="M255.247 263.146V261.187H257.214V263.146H255.247Z" fill="white"/>
<path d="M265.703 259.405L267.67 260.058C267.453 261.024 266.918 261.891 266.149 262.519C265.232 263.129 264.132 263.405 263.034 263.301C261.936 263.196 260.908 262.717 260.124 261.945C259.21 260.91 258.739 259.56 258.813 258.184C258.726 256.759 259.196 255.355 260.124 254.267C260.565 253.803 261.099 253.438 261.693 253.197C262.287 252.956 262.925 252.845 263.566 252.87C264.682 252.822 265.771 253.217 266.595 253.967C267.103 254.482 267.461 255.125 267.631 255.827L265.605 256.311C265.511 255.82 265.244 255.379 264.852 255.068C264.46 254.756 263.969 254.595 263.468 254.613C263.121 254.603 262.777 254.671 262.461 254.811C262.144 254.951 261.863 255.16 261.639 255.423C261.104 256.184 260.856 257.109 260.937 258.034C260.85 258.996 261.095 259.959 261.632 260.763C261.85 261.027 262.126 261.238 262.438 261.379C262.751 261.521 263.092 261.589 263.435 261.579C263.951 261.589 264.452 261.405 264.838 261.063C265.296 260.616 265.599 260.035 265.703 259.405Z" fill="white"/>
<path d="M268.929 259.855L270.895 259.66C270.959 260.218 271.217 260.738 271.623 261.128C272.045 261.46 272.574 261.627 273.111 261.598C273.643 261.637 274.172 261.49 274.606 261.181C274.76 261.067 274.886 260.92 274.974 260.75C275.061 260.58 275.108 260.392 275.111 260.201C275.116 259.98 275.042 259.765 274.901 259.594C274.698 259.388 274.445 259.238 274.167 259.157C273.926 259.074 273.38 258.926 272.528 258.713C271.69 258.561 270.898 258.219 270.214 257.714C269.915 257.465 269.677 257.153 269.514 256.801C269.352 256.449 269.271 256.065 269.276 255.677C269.277 255.164 269.43 254.662 269.715 254.234C270.024 253.773 270.465 253.416 270.981 253.21C271.606 252.963 272.275 252.843 272.947 252.857C273.977 252.782 274.998 253.078 275.825 253.693C276.145 253.97 276.401 254.312 276.577 254.696C276.752 255.08 276.842 255.497 276.842 255.919L274.79 256.01C274.75 255.579 274.548 255.178 274.226 254.887C273.84 254.631 273.378 254.511 272.915 254.548C272.422 254.52 271.933 254.648 271.518 254.913C271.411 254.985 271.325 255.082 271.268 255.197C271.21 255.311 271.184 255.438 271.19 255.566C271.19 255.685 271.218 255.802 271.27 255.908C271.322 256.014 271.398 256.107 271.492 256.18C272.073 256.512 272.711 256.733 273.374 256.833C274.138 256.987 274.882 257.23 275.589 257.557C276.05 257.792 276.437 258.146 276.711 258.582C276.994 259.083 277.137 259.651 277.123 260.225C277.109 260.8 276.939 261.36 276.632 261.847C276.305 262.356 275.826 262.751 275.262 262.976C274.556 263.241 273.806 263.365 273.052 263.342C271.991 263.411 270.941 263.096 270.096 262.454C269.388 261.767 268.971 260.838 268.929 259.855Z" fill="white"/>
<path d="M278.389 259.855L280.355 259.66C280.419 260.218 280.677 260.738 281.083 261.128C281.505 261.46 282.034 261.627 282.571 261.598C283.103 261.637 283.632 261.49 284.066 261.181C284.22 261.067 284.346 260.92 284.434 260.75C284.521 260.58 284.568 260.392 284.571 260.201C284.576 259.98 284.502 259.765 284.361 259.594C284.158 259.388 283.905 259.238 283.627 259.157C283.386 259.074 282.84 258.926 281.988 258.713C281.15 258.561 280.358 258.219 279.674 257.714C279.375 257.465 279.137 257.153 278.974 256.801C278.812 256.449 278.731 256.065 278.736 255.677C278.737 255.164 278.89 254.662 279.175 254.234C279.484 253.773 279.925 253.416 280.441 253.21C281.066 252.963 281.735 252.843 282.407 252.857C283.436 252.782 284.458 253.078 285.285 253.693C285.605 253.97 285.861 254.312 286.037 254.696C286.212 255.08 286.302 255.497 286.302 255.919L284.25 256.01C284.21 255.579 284.008 255.178 283.686 254.887C283.3 254.631 282.838 254.511 282.375 254.548C281.882 254.52 281.393 254.648 280.978 254.913C280.871 254.985 280.785 255.082 280.728 255.197C280.67 255.311 280.644 255.438 280.65 255.566C280.65 255.685 280.678 255.802 280.73 255.908C280.782 256.014 280.858 256.107 280.952 256.18C281.533 256.512 282.171 256.733 282.834 256.833C283.598 256.987 284.342 257.23 285.049 257.557C285.509 257.792 285.897 258.146 286.17 258.582C286.454 259.083 286.597 259.651 286.583 260.225C286.569 260.8 286.399 261.36 286.092 261.847C285.765 262.356 285.286 262.751 284.722 262.976C284.016 263.241 283.266 263.365 282.512 263.342C281.451 263.411 280.401 263.096 279.556 262.454C278.848 261.767 278.431 260.838 278.389 259.855Z" fill="white"/>
<path opacity="0.15" d="M125.932 321C138.952 321 149.507 319.892 149.507 318.526C149.507 317.159 138.952 316.052 125.932 316.052C112.912 316.052 102.357 317.159 102.357 318.526C102.357 319.892 112.912 321 125.932 321Z" fill="#5468FF"/>
<path opacity="0.15" d="M255.588 292.582H0V297.524H255.588V292.582Z" fill="#5468FF"/>
<path d="M70.3123 155.924H186.351C191.409 155.924 196.26 157.924 199.837 161.486C203.413 165.047 205.422 169.878 205.422 174.915V239.643H51.2412V174.915C51.2412 169.878 53.2505 165.047 56.827 161.486C60.4035 157.924 65.2543 155.924 70.3123 155.924Z" fill="white"/>
<path d="M212.62 195.342H228.144C230.519 195.342 232.797 196.281 234.477 197.954C236.156 199.626 237.1 201.894 237.1 204.26V269.726H204.32V203.626C204.32 201.433 205.194 199.328 206.75 197.775C208.306 196.222 210.417 195.347 212.62 195.342Z" fill="#5468FF"/>
<path d="M29.0619 195.342H43.4848C45.733 195.342 47.8891 196.231 49.4788 197.814C51.0685 199.397 51.9615 201.544 51.9615 203.783V269.72H21.457V202.915C21.457 200.906 22.2583 198.98 23.6844 197.56C25.1106 196.14 27.0449 195.342 29.0619 195.342Z" fill="#5468FF"/>
<path d="M54.7678 230.256H201.96C203.308 230.256 204.642 230.52 205.887 231.033C207.132 231.547 208.263 232.299 209.215 233.248C210.168 234.197 210.924 235.323 211.439 236.563C211.955 237.802 212.22 239.131 212.22 240.473V243.782H44.8291V240.127C44.8291 238.828 45.0864 237.542 45.5861 236.343C46.0859 235.144 46.8184 234.054 47.7417 233.138C48.6649 232.221 49.7608 231.494 50.9664 231C52.1721 230.505 53.4639 230.252 54.7678 230.256Z" fill="#5468FF"/>
<path d="M231.351 195.342H221.333C218.916 195.342 216.599 196.298 214.89 198C213.181 199.701 212.221 202.01 212.221 204.416V242.633H44.8293V205.219C44.8293 202.605 43.7863 200.097 41.9298 198.249C40.0733 196.4 37.5554 195.361 34.9299 195.361H24.9125C22.4956 195.361 20.1778 196.317 18.4688 198.019C16.7599 199.721 15.7998 202.029 15.7998 204.436V285.257C15.7998 285.603 15.938 285.935 16.1838 286.18C16.4297 286.425 16.7632 286.563 17.111 286.563H44.8227V269.674H212.221V286.569H239.932C240.28 286.569 240.614 286.432 240.859 286.187C241.105 285.942 241.243 285.61 241.243 285.264V205.219C241.246 203.924 240.992 202.64 240.496 201.442C240 200.244 239.272 199.156 238.353 198.238C237.434 197.321 236.343 196.593 235.142 196.096C233.94 195.599 232.652 195.343 231.351 195.342Z" fill="white"/>
<path opacity="0.3" d="M231.351 195.342H221.333C218.916 195.342 216.599 196.298 214.89 198C213.181 199.701 212.221 202.01 212.221 204.416V242.633H44.8293V205.219C44.8293 202.605 43.7863 200.097 41.9298 198.249C40.0733 196.4 37.5554 195.361 34.9299 195.361H24.9125C22.4956 195.361 20.1778 196.317 18.4688 198.019C16.7599 199.721 15.7998 202.029 15.7998 204.436V285.257C15.7998 285.603 15.938 285.935 16.1838 286.18C16.4297 286.425 16.7632 286.563 17.111 286.563H44.8227V269.674H212.221V286.569H239.932C240.28 286.569 240.614 286.432 240.859 286.187C241.105 285.942 241.243 285.61 241.243 285.264V205.219C241.246 203.924 240.992 202.64 240.496 201.442C240 200.244 239.272 199.156 238.353 198.238C237.434 197.321 236.343 196.593 235.142 196.096C233.94 195.599 232.652 195.343 231.351 195.342Z" fill="#5468FF"/>
<path opacity="0.3" d="M70.3123 155.924H186.351C191.409 155.924 196.26 157.924 199.837 161.486C203.413 165.047 205.422 169.878 205.422 174.915V239.643H51.2412V174.915C51.2412 169.878 53.2505 165.047 56.827 161.486C60.4035 157.924 65.2543 155.924 70.3123 155.924Z" fill="#5468FF"/>
<path d="M236.72 288.201V286.7H215.61V288.201H212.968V292.706H239.362V288.201H236.72Z" fill="#5468FF"/>
<path d="M40.6856 288.201V286.7H19.5691V288.201H16.9336V292.706H43.321V288.201H40.6856Z" fill="#5468FF"/>
<path d="M181.794 190.204C177.292 181.119 172.194 172.339 166.532 163.921C164.795 161.31 162.92 158.698 160.239 157.138C157.833 155.728 154.994 155.297 152.208 155.016C145.37 154.363 138.48 154.442 131.603 154.546C120.989 154.703 110.303 154.866 99.9115 157.027C98.7673 157.214 97.6606 157.582 96.6335 158.117C95.4228 158.927 94.3828 159.965 93.5719 161.172C88.074 168.412 83.2963 176.168 79.3063 184.329C77.3035 188.347 75.5647 192.49 74.101 196.733C72.7439 200.767 70.5542 204.567 70.3313 208.934C70.1281 213.119 72.0031 217.695 75.8383 219.379C80.6699 221.521 86.2031 218.485 91.4871 218.727C91.4871 218.211 91.4871 217.702 91.4871 217.186L100.711 216.422L99.9508 230.21L108.028 219.582C108.459 218.774 109.107 218.102 109.9 217.641C110.694 217.179 111.6 216.947 112.518 216.97L145.147 214.072C148.499 213.668 151.882 213.585 155.25 213.824C160.121 214.333 164.729 216.181 169.463 217.414C174.196 218.648 179.369 219.249 183.886 217.323C184.614 217.052 185.271 216.619 185.807 216.056C186.337 215.367 186.695 214.561 186.849 213.706C188.744 205.748 185.433 197.542 181.794 190.204ZM158.351 207.243V192.698L164.5 203.418L158.351 207.243Z" fill="#5468FF"/>
<path d="M100.711 191.164L93.7949 203.418L100.711 208.007V191.164Z" fill="white"/>
<path d="M103.02 208.007C103.02 208.007 104.488 198.508 119.606 200.212C119.906 200.244 120.183 200.385 120.385 200.608C120.587 200.831 120.699 201.12 120.701 201.42C120.702 201.579 120.671 201.736 120.611 201.883C120.551 202.029 120.462 202.163 120.35 202.276C120.238 202.389 120.105 202.478 119.958 202.54C119.811 202.601 119.654 202.633 119.494 202.634C116.938 202.634 111.26 202.948 111.857 205.33H122.346C122.628 205.33 122.898 205.442 123.097 205.64C123.296 205.839 123.408 206.108 123.408 206.388V208.823C123.408 209.068 123.36 209.311 123.266 209.538C123.171 209.764 123.033 209.97 122.859 210.143C122.685 210.317 122.478 210.454 122.251 210.548C122.023 210.642 121.78 210.69 121.533 210.69C121.419 210.69 121.309 210.736 121.227 210.816C121.146 210.897 121.101 211.007 121.101 211.121V212.27C121.102 212.454 121.064 212.635 120.989 212.804C120.915 212.972 120.806 213.122 120.669 213.245C120.533 213.369 120.371 213.462 120.196 213.519C120.021 213.576 119.835 213.595 119.652 213.576C116.852 213.321 110.919 213.125 110.336 216.043H104.954C104.954 216.043 104.173 207.628 103.02 208.007Z" fill="#F5B58F"/>
<path d="M154.915 212.988L154.148 208.418C154.148 208.418 151.998 202.699 139.365 204.384C139.002 204.437 138.67 204.615 138.425 204.887C138.181 205.159 138.04 205.507 138.027 205.872V206.832H136.847C136.541 206.832 136.248 206.953 136.031 207.168C135.815 207.384 135.693 207.676 135.693 207.981C135.693 208.132 135.722 208.282 135.779 208.422C135.837 208.563 135.922 208.69 136.029 208.797C136.136 208.905 136.264 208.99 136.404 209.048C136.545 209.106 136.695 209.136 136.847 209.136H143.403V210.67H137.221C136.821 210.67 136.437 210.829 136.155 211.11C135.872 211.392 135.713 211.774 135.713 212.172C135.713 212.374 135.754 212.574 135.833 212.761C135.913 212.947 136.029 213.115 136.175 213.255C136.322 213.395 136.495 213.505 136.685 213.577C136.875 213.648 137.077 213.681 137.28 213.674L154.915 212.988Z" fill="#F5B58F"/>
<path d="M92.6349 226.195L88.4129 185.987C88.3326 185.531 88.3519 185.064 88.4697 184.616C88.5874 184.169 88.8009 183.752 89.0953 183.395C89.3897 183.037 89.7582 182.747 90.1757 182.544C90.5931 182.341 91.0495 182.231 91.5138 182.22L155.27 180.751C155.741 180.738 156.208 180.828 156.64 181.015C157.073 181.202 157.458 181.48 157.771 181.831C158.083 182.182 158.315 182.597 158.449 183.046C158.583 183.496 158.617 183.969 158.548 184.433L159.426 222.598C159.426 222.598 134.756 224.393 124.024 224.556C124.011 224.556 103.832 229.205 92.6349 226.195Z" fill="white"/>
<path opacity="0.2" d="M92.6349 226.195L88.4129 185.987C88.3326 185.531 88.3519 185.064 88.4697 184.616C88.5874 184.169 88.8009 183.752 89.0953 183.395C89.3897 183.037 89.7582 182.747 90.1757 182.544C90.5931 182.341 91.0495 182.231 91.5138 182.22L155.27 180.751C155.741 180.738 156.208 180.828 156.64 181.015C157.073 181.202 157.458 181.48 157.771 181.831C158.083 182.182 158.315 182.597 158.449 183.046C158.583 183.496 158.617 183.969 158.548 184.433L159.426 222.598C159.426 222.598 134.756 224.393 124.024 224.556C124.011 224.556 103.832 229.205 92.6349 226.195Z" fill="#5468FF"/>
<path opacity="0.2" d="M124.22 198.038C126.711 198.038 128.731 196.831 128.731 195.342C128.731 193.853 126.711 192.646 124.22 192.646C121.729 192.646 119.71 193.853 119.71 195.342C119.71 196.831 121.729 198.038 124.22 198.038Z" fill="#5468FF"/>
<path d="M92.2546 218.727C92.2546 218.727 70.7251 220.261 66.8833 224.85C63.0416 229.44 67.6504 236.334 79.9558 232.508C92.2612 228.682 95.3293 226.384 95.3293 226.384L92.2546 218.727Z" fill="#000D44"/>
<path d="M121.467 145.994L120.7 156.714C121.494 158.349 122.682 159.764 124.157 160.832C125.633 161.9 127.35 162.589 129.157 162.837L130.206 165.148C130.333 165.432 130.537 165.675 130.796 165.849C131.054 166.023 131.356 166.122 131.668 166.134C131.979 166.147 132.288 166.072 132.559 165.918C132.831 165.765 133.053 165.539 133.202 165.266L134.513 162.837C134.513 162.837 140.801 159.939 141.502 154.494L140.663 143.696L121.467 145.994Z" fill="#F5B58F"/>
<path d="M184.47 217.199H183.748C180.767 214.726 177.008 213.372 173.128 213.373H154.076L100.712 216.481V216.435L91.4809 217.199L90.7139 232.508H99.938C99.938 232.508 169.902 240.93 173.744 240.93C177.586 240.93 192.973 236.334 184.47 217.199Z" fill="#1B255E"/>
<path d="M115.738 317.364L130.816 314.615C128.194 301.474 126.981 288.097 125.755 274.753L122.681 241.204C122.195 235.903 121.546 230.21 117.993 226.234C116.867 224.986 115.504 223.972 113.983 223.25C112.462 222.529 110.812 222.114 109.13 222.03C105.543 221.867 102.134 223.238 99.0925 225.02C96.0506 226.802 95.0147 228.761 94.3264 232.201C93.7429 235.113 94.3985 238.122 95.0672 241.014C101.02 266.703 108.323 292.06 115.679 317.396L115.738 317.364Z" fill="#1B255E"/>
<path d="M144.531 131.449C144.531 131.449 149.212 135.477 141.456 136.808L140.689 143.696L119.835 143.311L120.49 138.689C120.49 138.689 112.977 142.926 115.285 132.976L116.052 126.089L122.969 119.201L134.5 121.499L144.531 126.879V131.449Z" fill="#F5B58F"/>
<path d="M119.927 136.019C120.176 135.395 120.312 134.731 120.327 134.06C120.334 133.716 120.249 133.376 120.079 133.077C119.91 132.777 119.663 132.528 119.363 132.356C119.023 132.216 118.655 132.158 118.288 132.186C117.245 132.219 116.225 132.498 115.312 133.002C114.853 133.257 113.083 129.444 112.952 129.046C112.364 127.507 112.181 125.844 112.421 124.215C113.043 121.382 115.843 118.829 118.393 117.687C118.636 115.539 117.973 113.274 118.708 111.237C118.95 110.569 119.335 109.961 119.834 109.454C120.334 108.947 120.938 108.554 121.604 108.3C122.271 108.047 122.984 107.94 123.696 107.986C124.408 108.032 125.101 108.23 125.729 108.567C126.837 109.161 127.696 110.166 128.876 110.623C130.089 111.023 131.405 110.986 132.593 110.519C133.769 110.053 134.92 109.528 136.041 108.945C137.392 108.282 138.864 107.897 140.368 107.816C141.883 107.742 143.371 108.23 144.544 109.187C146.511 110.904 146.8 113.816 146.767 116.42C146.734 119.025 146.564 121.832 147.993 124.019C148.364 124.481 148.663 124.996 148.878 125.547C149.009 126.402 148.853 127.277 148.432 128.034C147.613 129.993 146.57 132.082 144.584 132.754C143.833 132.971 143.051 133.061 142.27 133.022C141.509 133.108 140.744 132.895 140.139 132.428C139.641 131.925 139.562 131.161 139.234 130.535C138.98 130.088 138.6 129.727 138.14 129.494C137.681 129.262 137.163 129.17 136.651 129.229C136.992 130.607 135.478 131.84 134.029 131.84C132.58 131.84 131.367 130.92 130.253 130.045C127.46 127.838 124.831 125.436 122.209 123.034C122.497 126.415 122.779 129.862 122.012 133.172C121.769 134.38 121.153 135.751 119.927 136.019Z" fill="#000D44"/>
<path d="M120.7 138.343C120.7 138.343 121.467 146.764 126.083 141.405C126.083 141.405 132.232 139.87 135.307 142.168C138.382 144.466 141.456 136.809 141.456 136.809C141.456 136.809 142.223 151.354 136.867 152.888C131.511 154.422 124.28 153.822 121.349 147.998C118.419 142.175 120.7 138.343 120.7 138.343Z" fill="#000D44"/>
<path d="M115.232 318.526H132.022C132.427 317.736 132.638 316.863 132.638 315.976C132.638 315.09 132.427 314.217 132.022 313.427C130.658 310.568 122.713 306.99 118.301 311.136C116.681 312.657 114.662 315.706 114.662 316.737C114.678 317.375 114.876 317.995 115.232 318.526Z" fill="#000D44"/>
<path d="M99.0002 111.113H32.4252C28.4309 111.128 24.6047 112.715 21.7802 115.528C18.9558 118.34 17.3622 122.151 17.3467 126.128C17.3622 130.106 18.9558 133.916 21.7802 136.728C24.6047 139.541 28.4309 141.128 32.4252 141.143H77.5166L91.0086 151.752V141.169H99.0002C102.994 141.154 106.821 139.567 109.645 136.754C112.47 133.942 114.063 130.132 114.079 126.154C114.07 122.172 112.48 118.355 109.654 115.537C106.829 112.719 102.999 111.128 99.0002 111.113Z" fill="#5468FF"/>
<path opacity="0.5" d="M99.0002 111.113H32.4252C28.4309 111.128 24.6047 112.715 21.7802 115.528C18.9558 118.34 17.3622 122.151 17.3467 126.128C17.3622 130.106 18.9558 133.916 21.7802 136.728C24.6047 139.541 28.4309 141.128 32.4252 141.143H77.5166L91.0086 151.752V141.169H99.0002C102.994 141.154 106.821 139.567 109.645 136.754C112.47 133.942 114.063 130.132 114.079 126.154C114.07 122.172 112.48 118.355 109.654 115.537C106.829 112.719 102.999 111.128 99.0002 111.113Z" fill="#000D44"/>
<path d="M38.739 127.022L99.794 127.022C100.337 127.022 100.777 126.584 100.777 126.043V125.351C100.777 124.81 100.337 124.372 99.794 124.372L38.739 124.372C38.1959 124.372 37.7556 124.81 37.7556 125.351V126.043C37.7556 126.584 38.1959 127.022 38.739 127.022Z" fill="white"/>
<path d="M54.7157 134.099H99.794C100.337 134.099 100.777 133.661 100.777 133.12V132.428C100.777 131.887 100.337 131.449 99.794 131.449H54.7157C54.1726 131.449 53.7323 131.887 53.7323 132.428V133.12C53.7323 133.661 54.1726 134.099 54.7157 134.099Z" fill="white"/>
</svg>
